<svg width="214" height="148" viewBox="0 0 214 148" fill="none" xmlns="http://www.w3.org/2000/svg">
<path d="M106.793 146.738C107.183 147.128 107.817 147.128 108.207 146.738L114.571 140.374C114.962 139.983 114.962 139.35 114.571 138.96C114.181 138.569 113.547 138.569 113.157 138.96L107.5 144.617L101.843 138.96C101.453 138.569 100.819 138.569 100.429 138.96C100.038 139.35 100.038 139.983 100.429 140.374L106.793 146.738ZM107.5 0L106.5 0L106.5 146.031H107.5H108.5L108.5 0L107.5 0Z" fill="white"/>
<path d="M127.793 73.7071C128.183 74.0976 128.817 74.0976 129.207 73.7071L135.571 67.3432C135.962 66.9526 135.962 66.3195 135.571 65.9289C135.181 65.5384 134.547 65.5384 134.157 65.9289L128.5 71.5858L122.843 65.9289C122.453 65.5384 121.819 65.5384 121.429 65.9289C121.038 66.3195 121.038 66.9526 121.429 67.3432L127.793 73.7071ZM128.5 0L127.5 0L127.5 73H128.5H129.5V0L128.5 0Z" fill="#7F7F86"/>
<path d="M152.793 73.7071C153.183 74.0976 153.817 74.0976 154.207 73.7071L160.571 67.3432C160.962 66.9526 160.962 66.3195 160.571 65.9289C160.181 65.5384 159.547 65.5384 159.157 65.9289L153.5 71.5858L147.843 65.9289C147.453 65.5384 146.819 65.5384 146.429 65.9289C146.038 66.3195 146.038 66.9526 146.429 67.3432L152.793 73.7071ZM153.5 0L152.5 0V73H153.5H154.5V0L153.5 0Z" fill="#7F7F86"/>
<path d="M177.793 73.7071C178.183 74.0976 178.817 74.0976 179.207 73.7071L185.571 67.3432C185.962 66.9526 185.962 66.3195 185.571 65.9289C185.181 65.5384 184.547 65.5384 184.157 65.9289L178.5 71.5858L172.843 65.9289C172.453 65.5384 171.819 65.5384 171.429 65.9289C171.038 66.3195 171.038 66.9526 171.429 67.3432L177.793 73.7071ZM178.5 0L177.5 0V73H178.5H179.5V0L178.5 0Z" fill="#7F7F86"/>
<path d="M202.793 73.7071C203.183 74.0976 203.817 74.0976 204.207 73.7071L210.571 67.3432C210.962 66.9526 210.962 66.3195 210.571 65.9289C210.181 65.5384 209.547 65.5384 209.157 65.9289L203.5 71.5858L197.843 65.9289C197.453 65.5384 196.819 65.5384 196.429 65.9289C196.038 66.3195 196.038 66.9526 196.429 67.3432L202.793 73.7071ZM203.5 0L202.5 0V73H203.5H204.5V0L203.5 0Z" fill="#7F7F86"/>
<path d="M10.7929 73.7071C11.1834 74.0976 11.8166 74.0976 12.2071 73.7071L18.5711 67.3432C18.9616 66.9526 18.9616 66.3195 18.5711 65.9289C18.1805 65.5384 17.5474 65.5384 17.1569 65.9289L11.5 71.5858L5.84315 65.9289C5.45262 65.5384 4.81946 65.5384 4.42893 65.9289C4.03841 66.3195 4.03841 66.9526 4.42893 67.3432L10.7929 73.7071ZM11.5 0L10.5 0L10.5 73H11.5H12.5L12.5 0L11.5 0Z" fill="#7F7F86"/>
<path d="M35.7929 73.7071C36.1834 74.0976 36.8166 74.0976 37.2071 73.7071L43.5711 67.3432C43.9616 66.9526 43.9616 66.3195 43.5711 65.9289C43.1805 65.5384 42.5474 65.5384 42.1569 65.9289L36.5 71.5858L30.8431 65.9289C30.4526 65.5384 29.8195 65.5384 29.4289 65.9289C29.0384 66.3195 29.0384 66.9526 29.4289 67.3432L35.7929 73.7071ZM36.5 0L35.5 0L35.5 73H36.5H37.5L37.5 0L36.5 0Z" fill="#7F7F86"/>
<path d="M60.7929 73.7071C61.1834 74.0976 61.8166 74.0976 62.2071 73.7071L68.5711 67.3432C68.9616 66.9526 68.9616 66.3195 68.5711 65.9289C68.1805 65.5384 67.5474 65.5384 67.1569 65.9289L61.5 71.5858L55.8431 65.9289C55.4526 65.5384 54.8195 65.5384 54.4289 65.9289C54.0384 66.3195 54.0384 66.9526 54.4289 67.3432L60.7929 73.7071ZM61.5 0L60.5 0L60.5 73H61.5H62.5L62.5 0L61.5 0Z" fill="#7F7F86"/>
<path d="M85.7929 73.7071C86.1834 74.0976 86.8166 74.0976 87.2071 73.7071L93.5711 67.3432C93.9616 66.9526 93.9616 66.3195 93.5711 65.9289C93.1805 65.5384 92.5474 65.5384 92.1569 65.9289L86.5 71.5858L80.8431 65.9289C80.4526 65.5384 79.8195 65.5384 79.4289 65.9289C79.0384 66.3195 79.0384 66.9526 79.4289 67.3432L85.7929 73.7071ZM86.5 0L85.5 0L85.5 73H86.5H87.5L87.5 0L86.5 0Z" fill="#7F7F86"/>
<path d="M10.3166 89.066H12.0546L8.49061 100H4.83861L1.23061 89.066H2.99061L6.40061 99.494H6.92861L10.3166 89.066ZM17.864 93.444V102.86H16.302V96.788C16.302 96.5387 16.302 96.304 16.302 96.084C16.3167 95.864 16.3313 95.6513 16.346 95.446C16.3607 95.2407 16.3753 95.0353 16.39 94.83C16.2433 94.962 16.082 95.1087 15.906 95.27C15.73 95.4167 15.5467 95.556 15.356 95.688L14.168 96.546L13.398 95.468L16.258 93.444H17.864Z" fill="#7F7F86"/>
<path d="M60.3166 89.066H62.0546L58.4906 100H54.8386L51.2306 89.066H52.9906L56.4006 99.494H56.9286L60.3166 89.066ZM66.214 93.246C67.2553 93.246 68.04 93.4733 68.568 93.928C69.096 94.3827 69.36 94.962 69.36 95.666C69.36 96.2527 69.1987 96.7367 68.876 97.118C68.568 97.4993 68.194 97.7633 67.754 97.91V97.976C68.326 98.0787 68.7807 98.3207 69.118 98.702C69.47 99.0687 69.646 99.5527 69.646 100.154C69.646 101.005 69.338 101.694 68.722 102.222C68.106 102.765 67.1453 103.036 65.84 103.036C65.2973 103.036 64.7913 102.985 64.322 102.882C63.8527 102.794 63.398 102.64 62.958 102.42V101.034C63.4567 101.269 63.9553 101.452 64.454 101.584C64.9527 101.716 65.422 101.782 65.862 101.782C66.6247 101.782 67.182 101.628 67.534 101.32C67.886 101.027 68.062 100.623 68.062 100.11C68.062 99.582 67.8493 99.2007 67.424 98.966C66.9987 98.7167 66.4047 98.592 65.642 98.592H64.388V97.382H65.642C66.3753 97.382 66.9107 97.2427 67.248 96.964C67.6 96.6707 67.776 96.2967 67.776 95.842C67.776 95.3727 67.622 95.0353 67.314 94.83C67.0207 94.61 66.6613 94.5 66.236 94.5C65.7813 94.5 65.356 94.5807 64.96 94.742C64.5787 94.8887 64.19 95.0867 63.794 95.336L63.002 94.324C63.4567 93.9867 63.9333 93.7227 64.432 93.532C64.9453 93.3413 65.5393 93.246 66.214 93.246Z" fill="#7F7F86"/>
<path d="M85.3166 89.066H87.0546L83.4906 100H79.8386L76.2306 89.066H77.9906L81.4006 99.494H81.9286L85.3166 89.066ZM95.086 100.748H93.744V102.86H92.094V100.748H87.804V99.604L92.138 93.378H93.744V99.428H95.086V100.748ZM92.094 97.382C92.094 97.074 92.1013 96.7147 92.116 96.304C92.1307 95.8933 92.1453 95.512 92.16 95.16C92.0867 95.3213 91.9327 95.5853 91.698 95.952C91.4633 96.304 91.2653 96.6047 91.104 96.854L89.344 99.428H92.094V97.382Z" fill="#7F7F86"/>
<path d="M128.317 89.066H130.055L126.491 100H122.839L119.231 89.066H120.991L124.401 99.494H124.929L128.317 89.066ZM137.162 93.444V94.654H133.092L132.894 97.052C133.07 97.0227 133.261 96.9933 133.466 96.964C133.686 96.9347 133.921 96.92 134.17 96.92C135.153 96.92 135.974 97.1693 136.634 97.668C137.294 98.1667 137.624 98.8853 137.624 99.824C137.624 100.851 137.316 101.643 136.7 102.2C136.084 102.772 135.175 103.058 133.972 103.058C133.503 103.058 133.011 103.007 132.498 102.904C131.985 102.816 131.567 102.677 131.244 102.486V101.012C131.64 101.247 132.087 101.43 132.586 101.562C133.099 101.709 133.547 101.782 133.928 101.782C134.588 101.782 135.109 101.635 135.49 101.342C135.886 101.049 136.084 100.587 136.084 99.956C136.084 99.3987 135.886 98.966 135.49 98.658C135.109 98.35 134.566 98.196 133.862 98.196C133.481 98.196 133.151 98.2253 132.872 98.284C132.608 98.3427 132.366 98.4013 132.146 98.46L131.464 98.02L131.816 93.444H137.162Z" fill="#7F7F86"/>
<path d="M153.317 89.066H155.055L151.491 100H147.839L144.231 89.066H145.991L149.401 99.494H149.929L153.317 89.066ZM160.776 93.268C160.981 93.268 161.209 93.2827 161.458 93.312C161.722 93.3413 161.935 93.378 162.096 93.422V94.72C161.935 94.6613 161.729 94.6173 161.48 94.588C161.231 94.544 160.967 94.522 160.688 94.522C159.896 94.522 159.273 94.676 158.818 94.984C158.363 95.2773 158.033 95.6807 157.828 96.194C157.637 96.7073 157.52 97.272 157.476 97.888H157.564C157.769 97.58 158.07 97.3233 158.466 97.118C158.862 96.898 159.361 96.788 159.962 96.788C160.827 96.788 161.531 97.0447 162.074 97.558C162.617 98.0713 162.888 98.7973 162.888 99.736C162.888 100.411 162.749 100.997 162.47 101.496C162.206 101.995 161.825 102.376 161.326 102.64C160.827 102.904 160.241 103.036 159.566 103.036C158.906 103.036 158.305 102.882 157.762 102.574C157.234 102.266 156.809 101.797 156.486 101.166C156.178 100.55 156.024 99.7653 156.024 98.812C156.024 98.1227 156.09 97.448 156.222 96.788C156.354 96.128 156.589 95.534 156.926 95.006C157.278 94.478 157.762 94.06 158.378 93.752C158.994 93.4293 159.793 93.268 160.776 93.268ZM159.588 97.998C159.163 97.998 158.796 98.0787 158.488 98.24C158.18 98.3867 157.945 98.5847 157.784 98.834C157.623 99.0687 157.542 99.3107 157.542 99.56C157.542 99.912 157.615 100.257 157.762 100.594C157.909 100.946 158.129 101.232 158.422 101.452C158.715 101.672 159.082 101.782 159.522 101.782C160.079 101.782 160.527 101.613 160.864 101.276C161.216 100.953 161.392 100.455 161.392 99.78C161.392 99.2227 161.238 98.79 160.93 98.482C160.637 98.1593 160.189 97.998 159.588 97.998Z" fill="#7F7F86"/>
<path d="M177.317 89.066H179.055L175.491 100H171.839L168.231 89.066H169.991L173.401 99.494H173.929L177.317 89.066ZM181.322 102.86L185.062 94.764H180.2V93.444H186.69V94.522L182.95 102.86H181.322Z" fill="#7F7F86"/>
<path d="M203.317 89.066H205.055L201.491 100H197.839L194.231 89.066H195.991L199.401 99.494H199.929L203.317 89.066ZM209.456 93.268C210.263 93.268 210.959 93.466 211.546 93.862C212.133 94.2433 212.426 94.8373 212.426 95.644C212.426 96.1867 212.272 96.634 211.964 96.986C211.656 97.338 211.282 97.6313 210.842 97.866C211.414 98.1007 211.869 98.4233 212.206 98.834C212.558 99.23 212.734 99.7287 212.734 100.33C212.734 101.151 212.426 101.804 211.81 102.288C211.209 102.787 210.424 103.036 209.456 103.036C208.737 103.036 208.129 102.926 207.63 102.706C207.146 102.501 206.772 102.2 206.508 101.804C206.259 101.408 206.134 100.939 206.134 100.396C206.134 99.9853 206.207 99.6333 206.354 99.34C206.515 99.032 206.721 98.7607 206.97 98.526C207.234 98.2913 207.52 98.0933 207.828 97.932C207.373 97.6387 207.021 97.338 206.772 97.03C206.537 96.7073 206.42 96.2673 206.42 95.71C206.42 95.182 206.559 94.742 206.838 94.39C207.117 94.0233 207.483 93.7447 207.938 93.554C208.407 93.3633 208.913 93.268 209.456 93.268ZM209.104 98.526C208.781 98.6727 208.51 98.8413 208.29 99.032C208.07 99.208 207.901 99.4133 207.784 99.648C207.681 99.868 207.63 100.117 207.63 100.396C207.63 100.807 207.777 101.144 208.07 101.408C208.363 101.672 208.811 101.804 209.412 101.804C210.028 101.804 210.483 101.672 210.776 101.408C211.069 101.144 211.216 100.807 211.216 100.396C211.216 99.9707 211.047 99.6187 210.71 99.34C210.387 99.0613 209.947 98.8267 209.39 98.636L209.104 98.526ZM209.434 94.478C208.965 94.478 208.598 94.588 208.334 94.808C208.07 95.0133 207.938 95.3067 207.938 95.688C207.938 96.0693 208.085 96.3847 208.378 96.634C208.671 96.8833 209.038 97.096 209.478 97.272C209.903 97.1107 210.248 96.9127 210.512 96.678C210.791 96.4287 210.93 96.0987 210.93 95.688C210.93 95.3067 210.798 95.0133 210.534 94.808C210.27 94.588 209.903 94.478 209.434 94.478Z" fill="#7F7F86"/>
<path d="M35.3166 89.066H37.0546L33.4906 100H29.8386L26.2306 89.066H27.9906L31.4006 99.494H31.9286L35.3166 89.066ZM44.316 102.86H38.112V101.672L40.642 99.208C41.2433 98.636 41.6907 98.174 41.984 97.822C42.292 97.4553 42.4973 97.1327 42.6 96.854C42.7173 96.5607 42.776 96.2527 42.776 95.93C42.776 95.4607 42.6367 95.1087 42.358 94.874C42.094 94.6393 41.742 94.522 41.302 94.522C40.862 94.522 40.4587 94.61 40.092 94.786C39.74 94.9473 39.3733 95.1747 38.992 95.468L38.222 94.456C38.6473 94.0893 39.1093 93.796 39.608 93.576C40.1213 93.356 40.6933 93.246 41.324 93.246C42.2627 93.246 42.996 93.4807 43.524 93.95C44.0667 94.4047 44.338 95.0353 44.338 95.842C44.338 96.326 44.2353 96.7733 44.03 97.184C43.8393 97.58 43.5533 97.9907 43.172 98.416C42.8053 98.8267 42.3507 99.2887 41.808 99.802L40.026 101.496H44.316V102.86Z" fill="#7F7F86"/>
</svg>
