<svg width="216" height="148" viewBox="0 0 216 148" fill="none" xmlns="http://www.w3.org/2000/svg">
<path d="M107.293 146.738C107.683 147.128 108.317 147.128 108.707 146.738L115.071 140.374C115.462 139.983 115.462 139.35 115.071 138.96C114.681 138.569 114.047 138.569 113.657 138.96L108 144.617L102.343 138.96C101.953 138.569 101.319 138.569 100.929 138.96C100.538 139.35 100.538 139.983 100.929 140.374L107.293 146.738ZM108 0L107 0L107 146.031H108H109L109 0L108 0Z" fill="white"/>
<path d="M128.293 73.7071C128.683 74.0976 129.317 74.0976 129.707 73.7071L136.071 67.3432C136.462 66.9526 136.462 66.3195 136.071 65.9289C135.681 65.5384 135.047 65.5384 134.657 65.9289L129 71.5858L123.343 65.9289C122.953 65.5384 122.319 65.5384 121.929 65.9289C121.538 66.3195 121.538 66.9526 121.929 67.3432L128.293 73.7071ZM129 0L128 0V73H129H130V0L129 0Z" fill="#7F7F86"/>
<path d="M153.293 73.7071C153.683 74.0976 154.317 74.0976 154.707 73.7071L161.071 67.3432C161.462 66.9526 161.462 66.3195 161.071 65.9289C160.681 65.5384 160.047 65.5384 159.657 65.9289L154 71.5858L148.343 65.9289C147.953 65.5384 147.319 65.5384 146.929 65.9289C146.538 66.3195 146.538 66.9526 146.929 67.3432L153.293 73.7071ZM154 0L153 0V73H154H155V0L154 0Z" fill="#7F7F86"/>
<path d="M178.293 73.7071C178.683 74.0976 179.317 74.0976 179.707 73.7071L186.071 67.3432C186.462 66.9526 186.462 66.3195 186.071 65.9289C185.681 65.5384 185.047 65.5384 184.657 65.9289L179 71.5858L173.343 65.9289C172.953 65.5384 172.319 65.5384 171.929 65.9289C171.538 66.3195 171.538 66.9526 171.929 67.3432L178.293 73.7071ZM179 0L178 0V73H179H180V0L179 0Z" fill="#7F7F86"/>
<path d="M203.293 73.7071C203.683 74.0976 204.317 74.0976 204.707 73.7071L211.071 67.3432C211.462 66.9526 211.462 66.3195 211.071 65.9289C210.681 65.5384 210.047 65.5384 209.657 65.9289L204 71.5858L198.343 65.9289C197.953 65.5384 197.319 65.5384 196.929 65.9289C196.538 66.3195 196.538 66.9526 196.929 67.3432L203.293 73.7071ZM204 0L203 0V73H204H205V0L204 0Z" fill="#7F7F86"/>
<path d="M11.2929 73.7071C11.6834 74.0976 12.3166 74.0976 12.7071 73.7071L19.0711 67.3432C19.4616 66.9526 19.4616 66.3195 19.0711 65.9289C18.6805 65.5384 18.0474 65.5384 17.6569 65.9289L12 71.5858L6.34315 65.9289C5.95262 65.5384 5.31946 65.5384 4.92893 65.9289C4.53841 66.3195 4.53841 66.9526 4.92893 67.3432L11.2929 73.7071ZM12 0L11 0L11 73H12H13L13 0L12 0Z" fill="#7F7F86"/>
<path d="M36.2929 73.7071C36.6834 74.0976 37.3166 74.0976 37.7071 73.7071L44.0711 67.3432C44.4616 66.9526 44.4616 66.3195 44.0711 65.9289C43.6805 65.5384 43.0474 65.5384 42.6569 65.9289L37 71.5858L31.3431 65.9289C30.9526 65.5384 30.3195 65.5384 29.9289 65.9289C29.5384 66.3195 29.5384 66.9526 29.9289 67.3432L36.2929 73.7071ZM37 0L36 0L36 73H37H38L38 0L37 0Z" fill="#7F7F86"/>
<path d="M61.2929 73.7071C61.6834 74.0976 62.3166 74.0976 62.7071 73.7071L69.0711 67.3432C69.4616 66.9526 69.4616 66.3195 69.0711 65.9289C68.6805 65.5384 68.0474 65.5384 67.6569 65.9289L62 71.5858L56.3431 65.9289C55.9526 65.5384 55.3195 65.5384 54.9289 65.9289C54.5384 66.3195 54.5384 66.9526 54.9289 67.3432L61.2929 73.7071ZM62 0L61 0L61 73H62H63L63 0L62 0Z" fill="#7F7F86"/>
<path d="M86.2929 73.7071C86.6834 74.0976 87.3166 74.0976 87.7071 73.7071L94.0711 67.3432C94.4616 66.9526 94.4616 66.3195 94.0711 65.9289C93.6805 65.5384 93.0474 65.5384 92.6569 65.9289L87 71.5858L81.3431 65.9289C80.9526 65.5384 80.3195 65.5384 79.9289 65.9289C79.5384 66.3195 79.5384 66.9526 79.9289 67.3432L86.2929 73.7071ZM87 0L86 0L86 73H87H88L88 0L87 0Z" fill="#7F7F86"/>
<path d="M2.04155 89.066H3.84555V90.672L3.55955 91.926H4.06555C4.52755 90.21 5.97955 88.846 8.48755 88.846C11.6555 88.846 13.7015 91.288 13.7015 94.544C13.7015 97.778 11.6555 100.22 8.48755 100.22C5.97955 100.22 4.52755 98.856 4.06555 97.162H3.55955L3.84555 98.394V104.004H2.04155V89.066ZM3.84555 94.544C3.84555 97.448 5.71555 98.68 7.95955 98.68C10.2255 98.68 11.8975 97.404 11.8975 94.544C11.8975 91.662 10.2255 90.386 7.95955 90.386C5.71555 90.386 3.84555 91.618 3.84555 94.544ZM20.153 93.444V102.86H18.591V96.788C18.591 96.5387 18.591 96.304 18.591 96.084C18.6057 95.864 18.6204 95.6513 18.635 95.446C18.6497 95.2407 18.6644 95.0353 18.679 94.83C18.5324 94.962 18.371 95.1087 18.195 95.27C18.019 95.4167 17.8357 95.556 17.645 95.688L16.457 96.546L15.687 95.468L18.547 93.444H20.153Z" fill="#7F7F86"/>
<path d="M52.0415 89.066H53.8455V90.672L53.5595 91.926H54.0655C54.5275 90.21 55.9795 88.846 58.4875 88.846C61.6555 88.846 63.7015 91.288 63.7015 94.544C63.7015 97.778 61.6555 100.22 58.4875 100.22C55.9795 100.22 54.5275 98.856 54.0655 97.162H53.5595L53.8455 98.394V104.004H52.0415V89.066ZM53.8455 94.544C53.8455 97.448 55.7155 98.68 57.9595 98.68C60.2255 98.68 61.8975 97.404 61.8975 94.544C61.8975 91.662 60.2255 90.386 57.9595 90.386C55.7155 90.386 53.8455 91.618 53.8455 94.544ZM68.503 93.246C69.5444 93.246 70.329 93.4733 70.857 93.928C71.385 94.3827 71.649 94.962 71.649 95.666C71.649 96.2527 71.4877 96.7367 71.165 97.118C70.857 97.4993 70.483 97.7633 70.043 97.91V97.976C70.615 98.0787 71.0697 98.3207 71.407 98.702C71.759 99.0687 71.935 99.5527 71.935 100.154C71.935 101.005 71.627 101.694 71.011 102.222C70.395 102.765 69.4344 103.036 68.129 103.036C67.5864 103.036 67.0804 102.985 66.611 102.882C66.1417 102.794 65.687 102.64 65.247 102.42V101.034C65.7457 101.269 66.2444 101.452 66.743 101.584C67.2417 101.716 67.711 101.782 68.151 101.782C68.9137 101.782 69.471 101.628 69.823 101.32C70.175 101.027 70.351 100.623 70.351 100.11C70.351 99.582 70.1384 99.2007 69.713 98.966C69.2877 98.7167 68.6937 98.592 67.931 98.592H66.677V97.382H67.931C68.6644 97.382 69.1997 97.2427 69.537 96.964C69.889 96.6707 70.065 96.2967 70.065 95.842C70.065 95.3727 69.911 95.0353 69.603 94.83C69.3097 94.61 68.9504 94.5 68.525 94.5C68.0704 94.5 67.645 94.5807 67.249 94.742C66.8677 94.8887 66.479 95.0867 66.083 95.336L65.291 94.324C65.7457 93.9867 66.2224 93.7227 66.721 93.532C67.2344 93.3413 67.8284 93.246 68.503 93.246Z" fill="#7F7F86"/>
<path d="M77.0415 89.066H78.8455V90.672L78.5595 91.926H79.0655C79.5275 90.21 80.9795 88.846 83.4875 88.846C86.6555 88.846 88.7015 91.288 88.7015 94.544C88.7015 97.778 86.6555 100.22 83.4875 100.22C80.9795 100.22 79.5275 98.856 79.0655 97.162H78.5595L78.8455 98.394V104.004H77.0415V89.066ZM78.8455 94.544C78.8455 97.448 80.7155 98.68 82.9595 98.68C85.2255 98.68 86.8975 97.404 86.8975 94.544C86.8975 91.662 85.2255 90.386 82.9595 90.386C80.7155 90.386 78.8455 91.618 78.8455 94.544ZM97.375 100.748H96.033V102.86H94.383V100.748H90.093V99.604L94.427 93.378H96.033V99.428H97.375V100.748ZM94.383 97.382C94.383 97.074 94.3904 96.7147 94.405 96.304C94.4197 95.8933 94.4344 95.512 94.449 95.16C94.3757 95.3213 94.2217 95.5853 93.987 95.952C93.7524 96.304 93.5544 96.6047 93.393 96.854L91.633 99.428H94.383V97.382Z" fill="#7F7F86"/>
<path d="M120.042 89.066H121.846V90.672L121.56 91.926H122.066C122.528 90.21 123.98 88.846 126.488 88.846C129.656 88.846 131.702 91.288 131.702 94.544C131.702 97.778 129.656 100.22 126.488 100.22C123.98 100.22 122.528 98.856 122.066 97.162H121.56L121.846 98.394V104.004H120.042V89.066ZM121.846 94.544C121.846 97.448 123.716 98.68 125.96 98.68C128.226 98.68 129.898 97.404 129.898 94.544C129.898 91.662 128.226 90.386 125.96 90.386C123.716 90.386 121.846 91.618 121.846 94.544ZM139.451 93.444V94.654H135.381L135.183 97.052C135.359 97.0227 135.55 96.9933 135.755 96.964C135.975 96.9347 136.21 96.92 136.459 96.92C137.442 96.92 138.263 97.1693 138.923 97.668C139.583 98.1667 139.913 98.8853 139.913 99.824C139.913 100.851 139.605 101.643 138.989 102.2C138.373 102.772 137.464 103.058 136.261 103.058C135.792 103.058 135.3 103.007 134.787 102.904C134.274 102.816 133.856 102.677 133.533 102.486V101.012C133.929 101.247 134.376 101.43 134.875 101.562C135.388 101.709 135.836 101.782 136.217 101.782C136.877 101.782 137.398 101.635 137.779 101.342C138.175 101.049 138.373 100.587 138.373 99.956C138.373 99.3987 138.175 98.966 137.779 98.658C137.398 98.35 136.855 98.196 136.151 98.196C135.77 98.196 135.44 98.2253 135.161 98.284C134.897 98.3427 134.655 98.4013 134.435 98.46L133.753 98.02L134.105 93.444H139.451Z" fill="#7F7F86"/>
<path d="M145.042 89.066H146.846V90.672L146.56 91.926H147.066C147.528 90.21 148.98 88.846 151.488 88.846C154.656 88.846 156.702 91.288 156.702 94.544C156.702 97.778 154.656 100.22 151.488 100.22C148.98 100.22 147.528 98.856 147.066 97.162H146.56L146.846 98.394V104.004H145.042V89.066ZM146.846 94.544C146.846 97.448 148.716 98.68 150.96 98.68C153.226 98.68 154.898 97.404 154.898 94.544C154.898 91.662 153.226 90.386 150.96 90.386C148.716 90.386 146.846 91.618 146.846 94.544ZM163.065 93.268C163.27 93.268 163.498 93.2827 163.747 93.312C164.011 93.3413 164.224 93.378 164.385 93.422V94.72C164.224 94.6613 164.018 94.6173 163.769 94.588C163.52 94.544 163.256 94.522 162.977 94.522C162.185 94.522 161.562 94.676 161.107 94.984C160.652 95.2773 160.322 95.6807 160.117 96.194C159.926 96.7073 159.809 97.272 159.765 97.888H159.853C160.058 97.58 160.359 97.3233 160.755 97.118C161.151 96.898 161.65 96.788 162.251 96.788C163.116 96.788 163.82 97.0447 164.363 97.558C164.906 98.0713 165.177 98.7973 165.177 99.736C165.177 100.411 165.038 100.997 164.759 101.496C164.495 101.995 164.114 102.376 163.615 102.64C163.116 102.904 162.53 103.036 161.855 103.036C161.195 103.036 160.594 102.882 160.051 102.574C159.523 102.266 159.098 101.797 158.775 101.166C158.467 100.55 158.313 99.7653 158.313 98.812C158.313 98.1227 158.379 97.448 158.511 96.788C158.643 96.128 158.878 95.534 159.215 95.006C159.567 94.478 160.051 94.06 160.667 93.752C161.283 93.4293 162.082 93.268 163.065 93.268ZM161.877 97.998C161.452 97.998 161.085 98.0787 160.777 98.24C160.469 98.3867 160.234 98.5847 160.073 98.834C159.912 99.0687 159.831 99.3107 159.831 99.56C159.831 99.912 159.904 100.257 160.051 100.594C160.198 100.946 160.418 101.232 160.711 101.452C161.004 101.672 161.371 101.782 161.811 101.782C162.368 101.782 162.816 101.613 163.153 101.276C163.505 100.953 163.681 100.455 163.681 99.78C163.681 99.2227 163.527 98.79 163.219 98.482C162.926 98.1593 162.478 97.998 161.877 97.998Z" fill="#7F7F86"/>
<path d="M169.042 89.066H170.846V90.672L170.56 91.926H171.066C171.528 90.21 172.98 88.846 175.488 88.846C178.656 88.846 180.702 91.288 180.702 94.544C180.702 97.778 178.656 100.22 175.488 100.22C172.98 100.22 171.528 98.856 171.066 97.162H170.56L170.846 98.394V104.004H169.042V89.066ZM170.846 94.544C170.846 97.448 172.716 98.68 174.96 98.68C177.226 98.68 178.898 97.404 178.898 94.544C178.898 91.662 177.226 90.386 174.96 90.386C172.716 90.386 170.846 91.618 170.846 94.544ZM183.611 102.86L187.351 94.764H182.489V93.444H188.979V94.522L185.239 102.86H183.611Z" fill="#7F7F86"/>
<path d="M195.042 89.066H196.846V90.672L196.56 91.926H197.066C197.528 90.21 198.98 88.846 201.488 88.846C204.656 88.846 206.702 91.288 206.702 94.544C206.702 97.778 204.656 100.22 201.488 100.22C198.98 100.22 197.528 98.856 197.066 97.162H196.56L196.846 98.394V104.004H195.042V89.066ZM196.846 94.544C196.846 97.448 198.716 98.68 200.96 98.68C203.226 98.68 204.898 97.404 204.898 94.544C204.898 91.662 203.226 90.386 200.96 90.386C198.716 90.386 196.846 91.618 196.846 94.544ZM211.745 93.268C212.552 93.268 213.248 93.466 213.835 93.862C214.422 94.2433 214.715 94.8373 214.715 95.644C214.715 96.1867 214.561 96.634 214.253 96.986C213.945 97.338 213.571 97.6313 213.131 97.866C213.703 98.1007 214.158 98.4233 214.495 98.834C214.847 99.23 215.023 99.7287 215.023 100.33C215.023 101.151 214.715 101.804 214.099 102.288C213.498 102.787 212.713 103.036 211.745 103.036C211.026 103.036 210.418 102.926 209.919 102.706C209.435 102.501 209.061 102.2 208.797 101.804C208.548 101.408 208.423 100.939 208.423 100.396C208.423 99.9853 208.496 99.6333 208.643 99.34C208.804 99.032 209.01 98.7607 209.259 98.526C209.523 98.2913 209.809 98.0933 210.117 97.932C209.662 97.6387 209.31 97.338 209.061 97.03C208.826 96.7073 208.709 96.2673 208.709 95.71C208.709 95.182 208.848 94.742 209.127 94.39C209.406 94.0233 209.772 93.7447 210.227 93.554C210.696 93.3633 211.202 93.268 211.745 93.268ZM211.393 98.526C211.07 98.6727 210.799 98.8413 210.579 99.032C210.359 99.208 210.19 99.4133 210.073 99.648C209.97 99.868 209.919 100.117 209.919 100.396C209.919 100.807 210.066 101.144 210.359 101.408C210.652 101.672 211.1 101.804 211.701 101.804C212.317 101.804 212.772 101.672 213.065 101.408C213.358 101.144 213.505 100.807 213.505 100.396C213.505 99.9707 213.336 99.6187 212.999 99.34C212.676 99.0613 212.236 98.8267 211.679 98.636L211.393 98.526ZM211.723 94.478C211.254 94.478 210.887 94.588 210.623 94.808C210.359 95.0133 210.227 95.3067 210.227 95.688C210.227 96.0693 210.374 96.3847 210.667 96.634C210.96 96.8833 211.327 97.096 211.767 97.272C212.192 97.1107 212.537 96.9127 212.801 96.678C213.08 96.4287 213.219 96.0987 213.219 95.688C213.219 95.3067 213.087 95.0133 212.823 94.808C212.559 94.588 212.192 94.478 211.723 94.478Z" fill="#7F7F86"/>
<path d="M27.0415 89.066H28.8455V90.672L28.5595 91.926H29.0655C29.5275 90.21 30.9795 88.846 33.4875 88.846C36.6555 88.846 38.7015 91.288 38.7015 94.544C38.7015 97.778 36.6555 100.22 33.4875 100.22C30.9795 100.22 29.5275 98.856 29.0655 97.162H28.5595L28.8455 98.394V104.004H27.0415V89.066ZM28.8455 94.544C28.8455 97.448 30.7155 98.68 32.9595 98.68C35.2255 98.68 36.8975 97.404 36.8975 94.544C36.8975 91.662 35.2255 90.386 32.9595 90.386C30.7155 90.386 28.8455 91.618 28.8455 94.544ZM46.605 102.86H40.401V101.672L42.931 99.208C43.5324 98.636 43.9797 98.174 44.273 97.822C44.581 97.4553 44.7864 97.1327 44.889 96.854C45.0064 96.5607 45.065 96.2527 45.065 95.93C45.065 95.4607 44.9257 95.1087 44.647 94.874C44.383 94.6393 44.031 94.522 43.591 94.522C43.151 94.522 42.7477 94.61 42.381 94.786C42.029 94.9473 41.6624 95.1747 41.281 95.468L40.511 94.456C40.9364 94.0893 41.3984 93.796 41.897 93.576C42.4104 93.356 42.9824 93.246 43.613 93.246C44.5517 93.246 45.285 93.4807 45.813 93.95C46.3557 94.4047 46.627 95.0353 46.627 95.842C46.627 96.326 46.5244 96.7733 46.319 97.184C46.1284 97.58 45.8424 97.9907 45.461 98.416C45.0944 98.8267 44.6397 99.2887 44.097 99.802L42.315 101.496H46.605V102.86Z" fill="#7F7F86"/>
</svg>
