<svg width="1316" height="682" viewBox="0 0 1316 682" fill="none" xmlns="http://www.w3.org/2000/svg">
<path d="M796.474 145.581C849.214 122.045 874.629 138.226 880.744 149.259C882.846 148.872 887.221 147.013 887.909 142.678C888.769 137.258 886.763 129.129 908.547 128.742C930.33 128.355 924.311 96.9994 918.292 94.8704C913.477 93.1671 917.05 75.7086 919.438 67.1923C923.069 65.0633 930.33 60.6503 930.33 60.0309C930.33 59.2567 928.324 60.418 935.776 46.4822C941.738 35.3336 953.165 35.2561 958.134 36.611L976.478 30.998C993.676 56.3921 1001.03 57.3211 1002.56 54.6114H1018.61V30.998L1053.87 24.9979L1099 36.611L1120.4 60.0309L1135.76 67.1923H1168.33L1183.21 94.8704L1227.88 128.742L1232.07 145.537L1227.88 167.203L1244 203.5L1227.88 224.5L1214.85 231L1227.88 251.5L1260.5 262.344L1288.42 294.372L1268.5 317L1280.18 333V351.369L1276.92 364.557V371L1308.6 406.139L1315.02 440.822L1296.5 466.756L1268.5 461L1244 479.5V513L1214.85 526.534L1200.9 527.985L1185.54 526.534L1173.91 527.985L1167.4 546.354L1174.84 563.309L1161.81 572.714L1150.64 581.207H1137.62L1125.52 592.301L1106.91 594.817L1074.51 565.397L1071.35 559.59C1067.91 564.081 1054.25 559.01 1047.85 555.913C1047.85 560.093 1036.96 558.945 1031.51 557.848C1032.66 561.719 1020.91 559.59 1015.46 563.461C1011.1 566.558 1018.42 573.655 1022.63 576.816C1025.38 581.307 1016.7 583.591 1012.02 584.171C1002.27 589.784 985.363 569.074 981.064 572.558C976.765 576.042 985.363 586.3 997.975 594.817C1010.59 603.333 1020.34 591.479 1026.64 592.301C1032 593 1033.33 593.72 1033.52 594.817L1017.18 606.043L1019.5 608L1024.35 607.785H1040.5L1041.26 613.204C1041.26 619.5 1030.54 611.966 1026.64 613.204C1021.77 614.753 1043.84 630.624 1041.26 633.914C1039.19 636.547 1029.12 633.85 1024.35 632.172C1025.97 638.753 1027.1 649.548 1017.18 641.85C1009 635.5 1005.14 637.463 1005.14 640.302C1006 656 988.279 649.401 989.663 650.947C991.5 653 992.816 663.528 992.529 673.012C992.3 680.599 987 680 984.5 680C973.5 679.5 971 682.5 971.032 673.012C971.032 673.012 961.669 663.528 960.427 658.689C959.853 661.076 957.847 665.851 954.407 665.851C950.108 665.851 939.216 658.689 940.362 646.302C941.28 636.392 928.324 641.011 921.732 644.56L906.54 631.785V619.398L912.273 607.785C906.731 600.752 893.068 585.565 882.75 581.075C872.431 576.584 870.807 549.009 871.285 535.783C827.487 504.35 794.945 493.524 784.149 492.04L754.913 477.911C747.804 458.091 721.186 453.265 708.765 453.33L702.459 435.523H688.415L682.109 462.233L719.657 481.395C719.084 498.428 750.327 526.299 763.798 523.009C774.576 520.376 789.882 525.654 796.188 528.622L792.461 538.493C812.43 544.751 854.889 560.055 864.979 571.203C875.068 582.352 860.775 588.752 852.367 590.559L811.379 571.203L805.646 586.688C839.182 591.913 822.844 604.688 817.971 614.172C814.073 621.759 796.665 633.721 788.448 638.753L767.524 634.882V648.237L770.104 665.851L743.448 667.593L665.484 638.753V624.43L702.459 617.656L725.39 624.43L767.524 617.656L777.843 604.688L772.111 590.559L743.448 575.074L688.415 557.268C681.249 546.429 661.013 523.899 637.394 520.492C613.776 517.086 604.241 490.685 602.426 477.911L571.469 468.233L555.418 481.395C552.074 480.879 543.265 480.659 534.781 483.911C524.176 487.976 518.156 510.428 496.946 506.557C479.977 503.46 446.881 495.589 432.454 492.04C431.69 492.492 427.352 494.169 416.116 497.266C402.071 501.137 413.823 514.492 421.275 520.492C428.728 526.493 396.912 547.783 380.86 549.719C368.019 551.267 357.357 555.396 353.631 557.268C334.617 569.526 300.547 595.514 316.369 601.398C332.191 607.281 327.929 614.688 323.821 617.656L303.323 630.001C320.336 643.237 288.895 648.703 270.794 649.786C278.82 657.683 259.807 665.464 249.297 668.367H190.251L164.168 679.98C155.856 680.819 137.913 682.38 132.639 681.915C127.365 681.451 114 672 114 660.238L96.81 654.625L81.6186 660.238L70.5 667.5L59.5 665.5H51.5L44.07 660.238L37.5 647L44.07 633.721C15.5 611 19.5 600 24.8657 594.236C26.5367 592.441 21.5 544 44.9299 533.267C30.4837 505.395 24.0058 498.679 36.9042 490.879C75.3127 467.653 93.3704 473.266 103.116 477.911C110.912 481.627 133.499 478.169 143.817 475.975C150.219 480.04 166.232 487.008 179.073 482.363C195.124 476.556 249.584 483.718 257.323 484.298C263.514 484.763 267.737 467.072 269.075 458.169C269.743 442.362 267.699 409.509 254.17 404.555C240.641 399.6 235.157 388.683 234.106 383.844C219.66 374.709 207.067 371.522 202.576 371.07C177.066 378.618 171.047 358.102 161.015 344.166C152.989 333.018 184.232 331.263 200.857 331.779C220.821 323.719 230.722 331.896 233.671 337.773C233.811 337.712 233.956 337.65 234.106 337.585C240.985 334.643 254.934 333.779 261.049 333.714L255.89 322.295C230.666 293.262 278.247 297.326 287.992 311.843H307.483C308.439 310.811 309.776 307.933 307.483 304.681C305.19 301.43 331.56 293.907 345.032 290.552C342.28 271.506 358.217 262.874 366.529 260.938C398.173 261.248 427.868 228.035 438.76 211.389C438.53 179.492 486.054 179.388 509.844 183.324L521.883 174.227L556.565 175.582L569.75 168.614C559.202 163.969 561.533 156.485 564.017 153.323L548.826 132.226V124.29C545.386 124.29 542.806 118.871 541.947 116.161C523.373 92.6251 544.717 65.7084 557.711 55.1921L587.521 50.1597C595.088 39.0111 614.751 35.0626 623.636 34.4819C657.115 42.9983 645.038 57.7728 634.815 64.0955L623.636 74.1602C644.503 72.7667 648.382 83.5153 647.713 89.0638C617.216 112.135 626.407 113.387 634.815 111.129C674.255 80.625 689.084 98.4189 691.568 111.129C685.644 114.871 676.204 123.748 685.835 129.323C697.874 136.291 661.96 143.285 656.514 143.285C651.068 143.285 630.229 141.13 623.636 141.13C618.362 141.13 604.05 134.742 597.553 129.323L613.318 145.581C613.318 150.162 615.381 158.317 623.636 154.291C633.955 149.259 641.407 149.259 652.586 154.291C661.529 158.317 670.453 152.614 673.797 149.259C681.536 146.742 700.339 141.594 713.638 141.13C726.938 140.665 730.454 156.033 730.549 163.775L781.57 154.291L796.474 145.581Z" fill="white"/>
<path d="M577.775 502.105C576.399 495.757 586.756 494.427 592.107 494.556C603.859 493.589 611.024 519.912 611.598 523.589C612.171 527.267 600.706 533.267 601.852 543.525C602.769 551.732 575.1 546.106 566.024 543.525C546.819 542.17 557.138 520.686 556.851 513.912C556.622 508.492 570.705 503.782 577.775 502.105Z" fill="white"/>
<path d="M562.584 558.816C541.488 556.493 547.679 566.236 553.412 571.397C554.845 575.655 556.106 586.378 549.686 595.204C541.66 606.236 561.151 614.366 576.915 612.236C592.68 610.107 609.866 614.753 621.618 595.204C633.37 575.655 618.826 562.441 594.113 554.171C583.299 550.552 575.482 551.784 572.329 554.171L562.584 558.816Z" fill="white"/>
<path d="M139.231 301.972C121.174 317.262 100.536 289.004 134.072 294.036C141.811 294.23 157.518 293.3 158.435 288.036C159.353 282.771 164.55 280.552 167.034 280.1C170.474 281.494 173.627 278.487 174.773 276.81L176.78 274.1V269.261C176.78 267.248 182.321 266.487 185.092 266.358V263.648C183.716 260.861 191.016 259.39 194.837 259.003H208.022L215.475 260.164C217.577 259.971 223.271 257.996 229.233 251.648C236.685 243.712 225.22 249.519 217.768 255.132C211.806 259.622 206.876 257.003 205.156 255.132L201.43 252.809L197.704 249.519L194.837 250.874C180.506 254.164 184.805 246.035 181.653 246.035C179.13 246.035 171.812 249.261 168.468 250.874L158.435 246.809C152.416 246.809 142.671 228.422 167.321 227.454C187.041 226.68 185.092 219.389 181.653 215.841C175.824 214.937 163.595 211.66 161.302 205.776C158.435 198.421 180.506 203.26 167.321 199.195C154.136 195.131 177.926 174.807 185.952 183.711C192.372 190.834 206.207 186.679 212.322 183.711V174.807L208.309 169.001L190.251 148.871C183.85 149.904 170.302 152.433 167.321 154.291C163.595 156.614 149.263 148.291 149.263 136.291C149.263 124.29 138.085 120.419 119.167 117.709C104.033 115.542 106.746 100.032 109.995 92.5477C117.638 88.8057 130.174 79.2699 119.167 71.0633C108.161 62.8567 127.193 53.7081 138.085 50.1596V48.2241C139.04 46.095 140.607 41.7981 139.231 41.6433C137.855 41.4885 137.129 38.4819 136.938 36.998C137.416 36.6109 137.97 35.3335 136.365 33.3205C134.359 30.8044 155.569 27.3204 149.263 24.9978C142.957 22.6751 150.696 17.0621 152.416 17.6428C154.136 18.2234 159.869 16.0944 159.009 13.7717C158.321 11.9136 156.429 11.191 155.569 11.062C147.544 7.8103 158.913 2.73923 165.601 0.610154L176.78 3.70707H186.239C214.042 -4.42214 228.66 2.54576 234.679 8.15878C239.494 12.6492 230.762 18.8042 225.794 21.3204C215.379 25.643 204.01 33.7464 241.845 31.5786C279.68 29.4109 272.323 47.3209 263.915 56.5469C266.896 61.6567 255.985 73.7731 250.157 79.1926C255.89 85.5411 252.546 90.7412 250.157 92.5477C255.431 97.9672 260.38 102.806 262.196 104.548C278.247 102.806 277.674 116.548 277.96 126.226C278.19 133.968 283.406 140.42 285.986 142.678C314.649 147.323 299.458 153.904 310.349 157.581C319.063 160.523 320.286 162.162 319.808 162.614V169.001H317.515V171.324L326.974 179.259V185.453L332.707 191.066V197.84C348.758 186.808 390.319 229.777 361.083 231.906C331.847 234.035 322.101 254.551 329.84 252.229C337.579 249.906 346.465 255.132 354.204 256.293C361.943 257.455 342.739 274.1 335.286 274.294C329.324 274.448 324.012 279.391 322.101 281.842H316.655C315.279 276.578 308.439 277.713 305.19 278.939L296.591 279.713L292.005 281.842H287.992L279.967 286.487H271.368C270.221 283.236 266.304 283.068 264.489 283.391L259.616 286.487C259.903 285.133 244.424 283.971 247.577 286.487C250.73 289.004 236.686 290.746 237.832 288.423C238.979 286.1 216.908 275.068 218.914 283.971C220.52 291.094 209.838 296.617 204.296 298.488C200.857 302.359 188.532 293.068 181.653 294.617C174.773 296.165 170.474 301.972 164.455 305.262C159.639 307.894 153.276 304.681 150.696 302.746L142.671 303.52L139.231 301.972Z" fill="white"/>
<path d="M193.118 171.711C191.513 178.059 172.576 174.356 163.308 171.711C156.716 164.743 161.302 162.614 177.066 163.388C192.831 164.162 195.124 163.775 193.118 171.711Z" fill="white"/>
<path d="M5.6616 241.583C-6.95012 230.744 4.41954 222.744 11.6808 220.099C16.4962 219.015 20.9486 218.357 22.5728 218.163L27.4455 214.486L32.8915 211.389C30.8278 210.15 35.2801 207.26 37.7642 205.969C37.7642 204.227 30.8851 200.744 40.9172 199.389C53.9294 197.631 50.1849 195.26 46.9364 194.937H37.7642L35.4712 196.679H27.4455L22.5728 193.001L17.7001 191.259C9.10121 189.905 12.5408 179.84 22.5728 180.033C32.6049 180.227 32.0316 171.711 26.299 174.227C21.7129 176.24 17.1269 173.388 15.4071 171.711C15.3115 169.388 14.6045 164.007 12.5408 161.065C10.477 158.123 20.853 156.743 26.299 156.42H33.1781L40.9172 158.743C47.223 159.71 59.2042 161.065 56.6818 158.743C54.1595 156.42 62.8921 152.097 67.5738 150.226C64.803 151.13 58.1723 152.046 53.8155 148.484C49.4587 144.923 57.9239 141.065 62.701 139.581L59.8347 136.291C59.5481 136.742 59.1468 136.213 59.8347 130.484C60.5227 124.755 80.1855 119.839 89.9309 118.097C112.861 114.38 112.479 123.903 109.422 129.129C121.174 121.968 145.537 130.678 141.238 136.291C136.938 141.904 144.964 148.871 149.263 157.001C152.703 163.504 145.346 163.969 141.238 163.388C144.219 167.414 135.601 170.614 130.919 171.711L127.193 170.356V173.453L131.779 174.227C129.257 175.775 134.55 181.324 137.512 183.904L134.932 193.389C146.397 196.292 134.072 209.066 136.078 212.937C137.683 216.034 130.823 221.97 127.193 224.551C127.957 224.551 129.486 225.48 129.486 229.196C129.486 232.912 120.123 232.422 115.441 231.712L104.262 232.68L94.517 236.357C85.6314 242.615 63.6183 255.132 46.6498 255.132H46.6496C25.4391 255.132 21.4262 255.132 5.6616 241.583Z" fill="white"/>
<circle cx="223.5" cy="115.5" r="22.5" fill="url(#paint0_radial_2149_3266)"/>
<circle cx="272.5" cy="166.5" r="22.5" fill="url(#paint1_radial_2149_3266)"/>
<circle cx="636.5" cy="189.5" r="22.5" fill="url(#paint2_radial_2149_3266)"/>
<circle cx="1039.5" cy="166.5" r="22.5" fill="url(#paint3_radial_2149_3266)"/>
<circle cx="223.5" cy="217.5" r="22.5" fill="url(#paint4_radial_2149_3266)"/>
<circle cx="474.5" cy="251.5" r="22.5" fill="url(#paint5_radial_2149_3266)"/>
<circle cx="583.5" cy="235.5" r="22.5" fill="url(#paint6_radial_2149_3266)"/>
<circle cx="835.5" cy="217.5" r="22.5" fill="url(#paint7_radial_2149_3266)"/>
<circle cx="995.5" cy="208.5" r="22.5" fill="url(#paint8_radial_2149_3266)"/>
<circle cx="1004.5" cy="354.5" r="22.5" fill="url(#paint9_radial_2149_3266)"/>
<circle cx="631.5" cy="371.5" r="22.5" fill="url(#paint10_radial_2149_3266)"/>
<circle cx="835.5" cy="371.5" r="22.5" fill="url(#paint11_radial_2149_3266)"/>
<circle cx="1039.5" cy="394.5" r="22.5" fill="url(#paint12_radial_2149_3266)"/>
<circle cx="427.5" cy="422.5" r="22.5" fill="url(#paint13_radial_2149_3266)"/>
<circle cx="613.5" cy="414.5" r="22.5" fill="url(#paint14_radial_2149_3266)"/>
<circle cx="882.5" cy="406.5" r="22.5" fill="url(#paint15_radial_2149_3266)"/>
<circle cx="381.5" cy="456.5" r="22.5" fill="url(#paint16_radial_2149_3266)"/>
<circle cx="566.5" cy="406.5" r="22.5" fill="url(#paint17_radial_2149_3266)"/>
<circle cx="223.5" cy="525.5" r="22.5" fill="url(#paint18_radial_2149_3266)"/>
<circle cx="986.5" cy="166.5" r="22.5" fill="url(#paint19_radial_2149_3266)"/>
<path d="M393.176 291.944H396.76V306H393.176V300.54H386.036V306H382.424V291.944H386.036V297.404H393.176V291.944ZM399.856 302.136C399.856 300.932 400.248 299.98 401.06 299.252C401.872 298.552 403.216 298.076 405.092 297.852L409.964 297.264C409.908 295.528 408.816 294.632 406.716 294.632C405.708 294.632 404.924 294.856 404.336 295.304C403.748 295.752 403.468 296.396 403.468 297.264H400.052C400.052 295.612 400.668 294.268 401.9 293.232C403.132 292.196 404.728 291.664 406.716 291.664C408.732 291.664 410.384 292.224 411.672 293.344C412.932 294.464 413.576 296.032 413.576 298.104V302.864H415.62V306H412.764C412.148 306 411.672 305.832 411.336 305.496C411 305.16 410.86 304.712 410.86 304.096V303.62L411.42 302.024H410.468C409.796 304.88 407.892 306.28 404.812 306.28C403.804 306.28 402.936 306.14 402.236 305.86C401.536 305.58 401.032 305.216 400.724 304.74C400.388 304.292 400.164 303.844 400.052 303.424C399.912 303.004 399.856 302.584 399.856 302.136ZM403.468 301.52C403.468 302.08 403.636 302.472 404 302.752C404.364 303.032 404.84 303.144 405.456 303.144C406.8 303.144 407.892 302.808 408.732 302.136C409.544 301.464 409.964 300.568 409.964 299.448L405.736 299.98C404.924 300.092 404.336 300.232 404 300.456C403.636 300.68 403.468 301.016 403.468 301.52ZM438.973 295.08H436.705L434.045 298.608L438.973 306H434.997L431.245 300.456H430.909H429.649V306H426.065V300.456H424.805H424.469L420.717 306H416.741L421.669 298.608L419.009 295.08H416.741V291.944H419.149C420.325 291.944 421.165 292.336 421.725 293.064L424.889 297.292H426.065V291.944H429.649V297.292H430.825L433.989 293.064C434.521 292.336 435.389 291.944 436.565 291.944H438.973V295.08ZM441.486 306V291.944H448.654L450.67 305.076H451.594L453.61 291.944H460.806V306H457.194V294.94L457.866 292.896H456.914L454.674 306H447.59L445.378 292.896H444.454L445.098 294.94V306H441.486ZM479.743 306H476.159V294.856L476.803 292.896H475.879L471.567 306H464.455V291.944H468.067V303.004L467.423 305.076H468.347L472.659 291.944H479.743V306ZM496.213 291.944V295.08H490.921V306H487.309V295.08H482.017V291.944H496.213ZM496.789 298.804C496.789 296.62 497.433 294.884 498.777 293.596C500.093 292.308 501.829 291.664 503.957 291.664C506.085 291.664 507.793 292.28 509.081 293.512C510.369 294.744 511.041 296.424 511.041 298.524V299.7H500.205C500.233 300.82 500.597 301.688 501.269 302.36C501.941 303.032 502.977 303.34 504.377 303.34C506.365 303.34 507.541 302.584 507.933 301.072H511.545C511.293 302.36 510.565 303.564 509.361 304.656C508.129 305.748 506.477 306.28 504.377 306.28C501.885 306.28 500.009 305.58 498.721 304.152C497.433 302.752 496.789 300.96 496.789 298.804ZM500.205 297.516H507.625C507.625 296.676 507.317 296.004 506.701 295.444C506.085 294.912 505.189 294.632 503.957 294.632C502.725 294.632 501.773 294.912 501.157 295.472C500.513 296.032 500.205 296.704 500.205 297.516Z" fill="#FF9E42"/>
<path d="M514.998 301.128L517.77 301.856L515.25 311.04L512.478 310.312L514.998 301.128ZM540.747 291.944H544.359V306H540.747V300.96L532.375 301.492C531.647 301.548 531.087 301.408 530.695 301.016C530.303 300.652 530.107 300.092 530.107 299.364V291.944H533.719V298.356L540.747 297.824V291.944ZM561.346 291.944V295.08H556.054V306H552.442V295.08H547.15V291.944H561.346ZM561.922 298.972C561.922 296.732 562.622 294.94 564.078 293.624C565.506 292.336 567.354 291.664 569.65 291.664C571.89 291.664 573.738 292.336 575.194 293.624C576.622 294.94 577.35 296.732 577.35 298.972C577.35 301.24 576.622 303.032 575.194 304.32C573.738 305.636 571.89 306.28 569.65 306.28C567.354 306.28 565.506 305.636 564.078 304.32C562.622 303.032 561.922 301.24 561.922 298.972ZM565.534 298.972C565.534 300.26 565.898 301.296 566.626 302.024C567.354 302.78 568.362 303.144 569.65 303.144C570.938 303.144 571.946 302.78 572.674 302.024C573.402 301.296 573.766 300.26 573.766 298.972C573.766 297.684 573.402 296.676 572.674 295.92C571.946 295.192 570.938 294.8 569.65 294.8C568.362 294.8 567.354 295.192 566.626 295.92C565.898 296.676 565.534 297.684 565.534 298.972ZM580.167 296.844C580.167 294.1 580.755 292 581.931 290.544C583.107 289.088 584.955 287.996 587.447 287.212C589.127 286.708 590.275 286.288 590.835 285.952C591.395 285.616 591.759 285.196 591.899 284.664H596.015C595.903 285.336 595.707 285.952 595.371 286.456C595.035 286.988 594.671 287.408 594.279 287.716C593.887 288.052 593.355 288.332 592.627 288.612C591.899 288.892 591.255 289.116 590.751 289.256C590.247 289.396 589.519 289.564 588.567 289.788C586.663 290.236 585.235 290.852 584.339 291.692C583.415 292.532 582.855 293.68 582.631 295.164L581.679 297.32H582.631C582.939 295.584 583.667 294.184 584.843 293.176C585.991 292.168 587.447 291.664 589.183 291.664C591.311 291.664 592.991 292.336 594.279 293.68C595.539 295.024 596.183 296.732 596.183 298.804C596.183 301.044 595.511 302.864 594.167 304.236C592.823 305.608 590.835 306.28 588.203 306.28C585.627 306.28 583.639 305.468 582.239 303.844C580.839 302.22 580.167 299.896 580.167 296.844ZM583.779 299.028C583.779 300.288 584.143 301.296 584.927 302.024C585.683 302.78 586.775 303.144 588.203 303.144C589.631 303.144 590.723 302.78 591.451 302.052C592.179 301.324 592.571 300.288 592.571 298.916C592.571 297.6 592.207 296.592 591.507 295.864C590.779 295.164 589.743 294.8 588.399 294.8C586.943 294.8 585.823 295.192 585.011 295.92C584.171 296.648 583.779 297.684 583.779 299.028ZM605.278 295.388C609.59 295.388 611.774 297.152 611.774 300.68C611.774 304.236 609.59 306 605.278 306H599.314V291.944H602.926V295.388H605.278ZM613.846 306V291.944H617.458V306H613.846ZM602.926 302.864H604.998C606.146 302.864 606.958 302.752 607.434 302.472C607.91 302.192 608.162 301.604 608.162 300.68C608.162 299.784 607.91 299.224 607.434 298.944C606.958 298.664 606.146 298.524 604.998 298.524H602.926V302.864ZM640.869 291.944H644.901L638.601 305.44V309.612C638.601 311.068 637.845 311.74 636.389 311.684L630.089 311.46V308.324L635.017 308.492V305.44L628.689 291.944H632.721L636.333 300.96V302.724H637.285V300.96L640.869 291.944ZM647.439 306V291.944H653.403C655.307 291.944 656.735 292.196 657.743 292.672C658.723 293.176 659.227 294.044 659.227 295.276C659.227 297.096 658.247 298.076 656.287 298.216V299.168C658.919 299.224 660.263 300.26 660.263 302.332C660.263 304.796 658.303 306 654.439 306H647.439ZM650.855 297.488H653.403C654.327 297.488 654.971 297.404 655.307 297.236C655.643 297.068 655.811 296.648 655.811 295.976C655.811 295.388 655.615 294.996 655.279 294.8C654.915 294.632 654.299 294.52 653.403 294.52H650.855V297.488ZM650.855 303.424H654.439C655.307 303.424 655.923 303.312 656.287 303.088C656.651 302.864 656.847 302.444 656.847 301.772C656.847 301.1 656.651 300.652 656.287 300.428C655.923 300.204 655.307 300.064 654.439 300.064H650.855V303.424ZM678.368 306H674.784V294.856L675.428 292.896H674.504L670.192 306H663.08V291.944H666.692V303.004L666.048 305.076H666.972L671.284 291.944H678.368V306ZM697.526 302.864V309.836H693.914V306H684.534V309.836H680.922V302.864H682.77C683.498 301.66 684.03 300.232 684.366 298.552C684.674 296.9 684.842 294.688 684.842 291.944H695.678V302.864H697.526ZM686.382 302.864H692.066V295.08H688.37C688.174 298.44 687.502 301.044 686.382 302.864ZM699.215 298.804C699.215 296.62 699.859 294.884 701.203 293.596C702.519 292.308 704.255 291.664 706.383 291.664C708.511 291.664 710.219 292.28 711.507 293.512C712.795 294.744 713.467 296.424 713.467 298.524V299.7H702.631C702.659 300.82 703.023 301.688 703.695 302.36C704.367 303.032 705.403 303.34 706.803 303.34C708.791 303.34 709.967 302.584 710.359 301.072H713.971C713.719 302.36 712.991 303.564 711.787 304.656C710.555 305.748 708.903 306.28 706.803 306.28C704.311 306.28 702.435 305.58 701.147 304.152C699.859 302.752 699.215 300.96 699.215 298.804ZM702.631 297.516H710.051C710.051 296.676 709.743 296.004 709.127 295.444C708.511 294.912 707.615 294.632 706.383 294.632C705.151 294.632 704.199 294.912 703.583 295.472C702.939 296.032 702.631 296.704 702.631 297.516ZM729.018 291.944V295.08H723.726V306H720.114V295.08H714.822V291.944H729.018ZM737.786 295.388C742.098 295.388 744.282 297.152 744.282 300.68C744.282 304.236 742.098 306 737.786 306H731.822V291.944H735.434V295.388H737.786ZM735.434 302.864H737.506C738.654 302.864 739.466 302.752 739.942 302.472C740.418 302.192 740.67 301.604 740.67 300.68C740.67 299.784 740.418 299.224 739.942 298.944C739.466 298.664 738.654 298.524 737.506 298.524H735.434V302.864ZM771.819 302.864V309.836H768.207V306H758.827V309.836H755.215V302.864H757.063C757.791 301.66 758.323 300.232 758.659 298.552C758.967 296.9 759.135 294.688 759.135 291.944H769.971V302.864H771.819ZM760.675 302.864H766.359V295.08H762.663C762.467 298.44 761.795 301.044 760.675 302.864ZM773.781 302.136C773.781 300.932 774.173 299.98 774.985 299.252C775.797 298.552 777.141 298.076 779.017 297.852L783.889 297.264C783.833 295.528 782.741 294.632 780.641 294.632C779.633 294.632 778.849 294.856 778.261 295.304C777.673 295.752 777.393 296.396 777.393 297.264H773.977C773.977 295.612 774.593 294.268 775.825 293.232C777.057 292.196 778.653 291.664 780.641 291.664C782.657 291.664 784.309 292.224 785.597 293.344C786.857 294.464 787.501 296.032 787.501 298.104V302.864H789.545V306H786.689C786.073 306 785.597 305.832 785.261 305.496C784.925 305.16 784.785 304.712 784.785 304.096V303.62L785.345 302.024H784.393C783.721 304.88 781.817 306.28 778.737 306.28C777.729 306.28 776.861 306.14 776.161 305.86C775.461 305.58 774.957 305.216 774.649 304.74C774.313 304.292 774.089 303.844 773.977 303.424C773.837 303.004 773.781 302.584 773.781 302.136ZM777.393 301.52C777.393 302.08 777.561 302.472 777.925 302.752C778.289 303.032 778.765 303.144 779.381 303.144C780.725 303.144 781.817 302.808 782.657 302.136C783.469 301.464 783.889 300.568 783.889 299.448L779.661 299.98C778.849 300.092 778.261 300.232 777.925 300.456C777.561 300.68 777.393 301.016 777.393 301.52ZM805.143 291.944V306H801.559V295.08H797.527C797.499 296.34 797.443 297.404 797.387 298.3C797.331 299.196 797.219 300.092 797.051 300.988C796.883 301.884 796.631 302.612 796.351 303.172C796.071 303.732 795.679 304.264 795.231 304.712C794.783 305.16 794.223 305.496 793.551 305.692C792.879 305.916 792.123 306 791.227 306V302.864C792.431 302.864 793.187 302.136 793.495 300.652C793.775 299.196 793.943 296.284 793.943 291.944H805.143ZM814.786 295.388C819.098 295.388 821.282 297.152 821.282 300.68C821.282 304.236 819.098 306 814.786 306H808.822V291.944H812.434V295.388H814.786ZM812.434 302.864H814.506C815.654 302.864 816.466 302.752 816.942 302.472C817.418 302.192 817.67 301.604 817.67 300.68C817.67 299.784 817.418 299.224 816.942 298.944C816.466 298.664 815.654 298.524 814.506 298.524H812.434V302.864ZM835.105 291.944H838.689V306H835.105V300.54H827.965V306H824.353V291.944H827.965V297.404H835.105V291.944ZM841.512 298.804C841.512 296.62 842.156 294.884 843.5 293.596C844.816 292.308 846.552 291.664 848.68 291.664C850.808 291.664 852.516 292.28 853.804 293.512C855.092 294.744 855.764 296.424 855.764 298.524V299.7H844.928C844.956 300.82 845.32 301.688 845.992 302.36C846.664 303.032 847.7 303.34 849.1 303.34C851.088 303.34 852.264 302.584 852.656 301.072H856.268C856.016 302.36 855.288 303.564 854.084 304.656C852.852 305.748 851.2 306.28 849.1 306.28C846.608 306.28 844.732 305.58 843.444 304.152C842.156 302.752 841.512 300.96 841.512 298.804ZM844.928 297.516H852.348C852.348 296.676 852.04 296.004 851.424 295.444C850.808 294.912 849.912 294.632 848.68 294.632C847.448 294.632 846.496 294.912 845.88 295.472C845.236 296.032 844.928 296.704 844.928 297.516ZM871.269 285.112C871.269 286.652 870.849 287.912 870.037 288.892C869.225 289.9 868.021 290.376 866.453 290.376C864.829 290.376 863.625 289.9 862.813 288.892C862.001 287.912 861.609 286.652 861.609 285.112H864.381C864.381 286.092 864.549 286.792 864.885 287.184C865.221 287.604 865.725 287.8 866.453 287.8C867.153 287.8 867.657 287.604 867.993 287.184C868.329 286.792 868.497 286.092 868.497 285.112H871.269ZM873.985 306H870.401V294.856L871.045 292.896H870.121L865.809 306H858.697V291.944H862.309V303.004L861.665 305.076H862.589L866.901 291.944H873.985V306ZM892.163 291.944H895.775V306H877.099V291.944H880.711V302.864H884.631V291.944H888.243V302.864H892.163V291.944ZM914.7 306H911.116V294.856L911.76 292.896H910.836L906.524 306H899.412V291.944H903.024V303.004L902.38 305.076H903.304L907.616 291.944H914.7V306ZM930.386 285.112C930.386 286.652 929.966 287.912 929.154 288.892C928.342 289.9 927.138 290.376 925.57 290.376C923.946 290.376 922.742 289.9 921.93 288.892C921.118 287.912 920.726 286.652 920.726 285.112H923.498C923.498 286.092 923.666 286.792 924.002 287.184C924.338 287.604 924.842 287.8 925.57 287.8C926.27 287.8 926.774 287.604 927.11 287.184C927.446 286.792 927.614 286.092 927.614 285.112H930.386ZM933.102 306H929.518V294.856L930.162 292.896H929.238L924.926 306H917.814V291.944H921.426V303.004L920.782 305.076H921.706L926.018 291.944H933.102V306ZM509.267 318.944V333H505.655V322.08H499.635V333H496.023V318.944H509.267ZM524.234 318.944H528.266L521.966 332.44V336.612C521.966 338.068 521.21 338.74 519.754 338.684L513.454 338.46V335.324L518.382 335.492V332.44L512.054 318.944H516.086L519.698 327.96V329.724H520.65V327.96L524.234 318.944ZM544.16 318.944V322.08H538.868V333H535.256V322.08H529.964V318.944H544.16ZM552.929 322.388C557.241 322.388 559.425 324.152 559.425 327.68C559.425 331.236 557.241 333 552.929 333H546.965V318.944H550.577V322.388H552.929ZM550.577 329.864H552.649C553.797 329.864 554.609 329.752 555.085 329.472C555.561 329.192 555.813 328.604 555.813 327.68C555.813 326.784 555.561 326.224 555.085 325.944C554.609 325.664 553.797 325.524 552.649 325.524H550.577V329.864ZM570.918 333V318.944H582.006V322.08H574.53V333H570.918ZM583.127 325.804C583.127 323.62 583.771 321.884 585.115 320.596C586.431 319.308 588.167 318.664 590.295 318.664C592.423 318.664 594.131 319.28 595.419 320.512C596.707 321.744 597.379 323.424 597.379 325.524V326.7H586.543C586.571 327.82 586.935 328.688 587.607 329.36C588.279 330.032 589.315 330.34 590.715 330.34C592.703 330.34 593.879 329.584 594.271 328.072H597.883C597.631 329.36 596.903 330.564 595.699 331.656C594.467 332.748 592.815 333.28 590.715 333.28C588.223 333.28 586.347 332.58 585.059 331.152C583.771 329.752 583.127 327.96 583.127 325.804ZM586.543 324.516H593.963C593.963 323.676 593.655 323.004 593.039 322.444C592.423 321.912 591.527 321.632 590.295 321.632C589.063 321.632 588.111 321.912 587.495 322.472C586.851 323.032 586.543 323.704 586.543 324.516ZM611.064 318.944H614.648V333H611.064V327.54H603.924V333H600.312V318.944H603.924V324.404H611.064V318.944ZM617.471 325.804C617.471 323.62 618.115 321.884 619.459 320.596C620.775 319.308 622.511 318.664 624.639 318.664C626.767 318.664 628.475 319.28 629.763 320.512C631.051 321.744 631.723 323.424 631.723 325.524V326.7H620.887C620.915 327.82 621.279 328.688 621.951 329.36C622.623 330.032 623.659 330.34 625.059 330.34C627.047 330.34 628.223 329.584 628.615 328.072H632.227C631.975 329.36 631.247 330.564 630.043 331.656C628.811 332.748 627.159 333.28 625.059 333.28C622.567 333.28 620.691 332.58 619.403 331.152C618.115 329.752 617.471 327.96 617.471 325.804ZM620.887 324.516H628.307C628.307 323.676 627.999 323.004 627.383 322.444C626.767 321.912 625.871 321.632 624.639 321.632C623.407 321.632 622.455 321.912 621.839 322.472C621.195 323.032 620.887 323.704 620.887 324.516ZM634.656 318.944H638.268V320.288L637.624 322.444H638.548C639.388 319.924 641.236 318.664 644.148 318.664C646.108 318.664 647.648 319.364 648.768 320.764C649.888 322.164 650.476 323.9 650.476 326C650.476 328.1 649.888 329.836 648.768 331.208C647.648 332.608 646.108 333.28 644.148 333.28C641.236 333.28 639.388 332.048 638.548 329.528H637.624L638.268 331.656V338.236H634.656V318.944ZM638.268 326C638.268 327.4 638.632 328.464 639.416 329.136C640.2 329.808 641.264 330.144 642.608 330.144C643.952 330.144 644.988 329.808 645.744 329.136C646.472 328.464 646.864 327.4 646.864 326C646.864 324.6 646.472 323.536 645.744 322.836C644.988 322.164 643.952 321.8 642.608 321.8C641.264 321.8 640.2 322.164 639.416 322.836C638.632 323.536 638.268 324.6 638.268 326ZM652.99 329.136C652.99 327.932 653.382 326.98 654.194 326.252C655.006 325.552 656.35 325.076 658.226 324.852L663.098 324.264C663.042 322.528 661.95 321.632 659.85 321.632C658.842 321.632 658.058 321.856 657.47 322.304C656.882 322.752 656.602 323.396 656.602 324.264H653.186C653.186 322.612 653.802 321.268 655.034 320.232C656.266 319.196 657.862 318.664 659.85 318.664C661.866 318.664 663.518 319.224 664.806 320.344C666.066 321.464 666.71 323.032 666.71 325.104V329.864H668.754V333H665.898C665.282 333 664.806 332.832 664.47 332.496C664.134 332.16 663.994 331.712 663.994 331.096V330.62L664.554 329.024H663.602C662.93 331.88 661.026 333.28 657.946 333.28C656.938 333.28 656.07 333.14 655.37 332.86C654.67 332.58 654.166 332.216 653.858 331.74C653.522 331.292 653.298 330.844 653.186 330.424C653.046 330.004 652.99 329.584 652.99 329.136ZM656.602 328.52C656.602 329.08 656.77 329.472 657.134 329.752C657.498 330.032 657.974 330.144 658.59 330.144C659.934 330.144 661.026 329.808 661.866 329.136C662.678 328.464 663.098 327.568 663.098 326.448L658.87 326.98C658.058 327.092 657.47 327.232 657.134 327.456C656.77 327.68 656.602 328.016 656.602 328.52ZM686.48 329.864C687.88 329.864 688.58 330.564 688.58 331.964V336.836H684.996V333H670.996V318.944H674.608V329.864H680.628V318.944H684.24V329.864H686.48ZM706.409 333H702.825V321.856L703.469 319.896H702.545L698.233 333H691.121V318.944H694.733V330.004L694.089 332.076H695.013L699.325 318.944H706.409V333ZM724.811 333H721.227V321.856L721.871 319.896H720.947L716.635 333H709.523V318.944H713.135V330.004L712.491 332.076H713.415L717.727 318.944H724.811V333ZM746.987 318.944H750.599V333H746.987V327.96L738.615 328.492C737.887 328.548 737.327 328.408 736.935 328.016C736.543 327.652 736.347 327.092 736.347 326.364V318.944H739.959V325.356L746.987 324.824V318.944ZM769.518 333H765.934V321.856L766.578 319.896H765.654L761.342 333H754.23V318.944H757.842V330.004L757.198 332.076H758.122L762.434 318.944H769.518V333ZM772.073 325.972C772.073 323.788 772.745 322.024 774.117 320.68C775.461 319.336 777.281 318.664 779.549 318.664C781.397 318.664 783.021 319.196 784.421 320.204C785.821 321.212 786.577 322.668 786.717 324.572H783.105C782.965 323.676 782.573 323.004 781.957 322.528C781.313 322.052 780.501 321.8 779.549 321.8C778.289 321.8 777.337 322.192 776.665 322.948C775.993 323.704 775.685 324.712 775.685 325.972C775.685 327.26 775.993 328.268 776.665 329.024C777.337 329.78 778.289 330.144 779.549 330.144C780.501 330.144 781.313 329.92 781.957 329.444C782.573 328.968 782.965 328.268 783.105 327.372H786.717C786.577 329.276 785.821 330.76 784.421 331.768C783.021 332.776 781.397 333.28 779.549 333.28C777.281 333.28 775.461 332.636 774.117 331.292C772.745 329.976 772.073 328.212 772.073 325.972ZM801.492 318.944V333H797.908V322.08H793.876C793.848 323.34 793.792 324.404 793.736 325.3C793.68 326.196 793.568 327.092 793.4 327.988C793.232 328.884 792.98 329.612 792.7 330.172C792.42 330.732 792.028 331.264 791.58 331.712C791.132 332.16 790.572 332.496 789.9 332.692C789.228 332.916 788.472 333 787.576 333V329.864C788.78 329.864 789.536 329.136 789.844 327.652C790.124 326.196 790.292 323.284 790.292 318.944H801.492ZM804.612 329.136C804.612 327.932 805.004 326.98 805.816 326.252C806.628 325.552 807.972 325.076 809.848 324.852L814.72 324.264C814.664 322.528 813.572 321.632 811.472 321.632C810.464 321.632 809.68 321.856 809.092 322.304C808.504 322.752 808.224 323.396 808.224 324.264H804.808C804.808 322.612 805.424 321.268 806.656 320.232C807.888 319.196 809.484 318.664 811.472 318.664C813.488 318.664 815.14 319.224 816.428 320.344C817.688 321.464 818.332 323.032 818.332 325.104V329.864H820.376V333H817.52C816.904 333 816.428 332.832 816.092 332.496C815.756 332.16 815.616 331.712 815.616 331.096V330.62L816.176 329.024H815.224C814.552 331.88 812.648 333.28 809.568 333.28C808.56 333.28 807.692 333.14 806.992 332.86C806.292 332.58 805.788 332.216 805.48 331.74C805.144 331.292 804.92 330.844 804.808 330.424C804.668 330.004 804.612 329.584 804.612 329.136ZM808.224 328.52C808.224 329.08 808.392 329.472 808.756 329.752C809.12 330.032 809.596 330.144 810.212 330.144C811.556 330.144 812.648 329.808 813.488 329.136C814.3 328.464 814.72 327.568 814.72 326.448L810.492 326.98C809.68 327.092 809.092 327.232 808.756 327.456C808.392 327.68 808.224 328.016 808.224 328.52Z" fill="black"/>
<defs>
<radialGradient id="paint0_radial_2149_3266" cx="0" cy="0" r="1" gradientUnits="userSpaceOnUse" gradientTransform="translate(223.5 115.5) rotate(90) scale(22.5)">
<stop offset="0.259615" stop-color="#FD641B"/>
<stop offset="0.629808" stop-color="#FF9E42"/>
<stop offset="1" stop-color="white"/>
</radialGradient>
<radialGradient id="paint1_radial_2149_3266" cx="0" cy="0" r="1" gradientUnits="userSpaceOnUse" gradientTransform="translate(272.5 166.5) rotate(90) scale(22.5)">
<stop offset="0.259615" stop-color="#FD641B"/>
<stop offset="0.629808" stop-color="#FF9E42"/>
<stop offset="1" stop-color="white"/>
</radialGradient>
<radialGradient id="paint2_radial_2149_3266" cx="0" cy="0" r="1" gradientUnits="userSpaceOnUse" gradientTransform="translate(636.5 189.5) rotate(90) scale(22.5)">
<stop offset="0.259615" stop-color="#FD641B"/>
<stop offset="0.629808" stop-color="#FF9E42"/>
<stop offset="1" stop-color="white"/>
</radialGradient>
<radialGradient id="paint3_radial_2149_3266" cx="0" cy="0" r="1" gradientUnits="userSpaceOnUse" gradientTransform="translate(1039.5 166.5) rotate(90) scale(22.5)">
<stop offset="0.259615" stop-color="#FD641B"/>
<stop offset="0.629808" stop-color="#FF9E42"/>
<stop offset="1" stop-color="white"/>
</radialGradient>
<radialGradient id="paint4_radial_2149_3266" cx="0" cy="0" r="1" gradientUnits="userSpaceOnUse" gradientTransform="translate(223.5 217.5) rotate(90) scale(22.5)">
<stop offset="0.259615" stop-color="#FD641B"/>
<stop offset="0.629808" stop-color="#FF9E42"/>
<stop offset="1" stop-color="white"/>
</radialGradient>
<radialGradient id="paint5_radial_2149_3266" cx="0" cy="0" r="1" gradientUnits="userSpaceOnUse" gradientTransform="translate(474.5 251.5) rotate(90) scale(22.5)">
<stop offset="0.259615" stop-color="#FD641B"/>
<stop offset="0.629808" stop-color="#FF9E42"/>
<stop offset="1" stop-color="white"/>
</radialGradient>
<radialGradient id="paint6_radial_2149_3266" cx="0" cy="0" r="1" gradientUnits="userSpaceOnUse" gradientTransform="translate(583.5 235.5) rotate(90) scale(22.5)">
<stop offset="0.259615" stop-color="#FD641B"/>
<stop offset="0.629808" stop-color="#FF9E42"/>
<stop offset="1" stop-color="white"/>
</radialGradient>
<radialGradient id="paint7_radial_2149_3266" cx="0" cy="0" r="1" gradientUnits="userSpaceOnUse" gradientTransform="translate(835.5 217.5) rotate(90) scale(22.5)">
<stop offset="0.259615" stop-color="#FD641B"/>
<stop offset="0.629808" stop-color="#FF9E42"/>
<stop offset="1" stop-color="white"/>
</radialGradient>
<radialGradient id="paint8_radial_2149_3266" cx="0" cy="0" r="1" gradientUnits="userSpaceOnUse" gradientTransform="translate(995.5 208.5) rotate(90) scale(22.5)">
<stop offset="0.259615" stop-color="#FD641B"/>
<stop offset="0.629808" stop-color="#FF9E42"/>
<stop offset="1" stop-color="white"/>
</radialGradient>
<radialGradient id="paint9_radial_2149_3266" cx="0" cy="0" r="1" gradientUnits="userSpaceOnUse" gradientTransform="translate(1004.5 354.5) rotate(90) scale(22.5)">
<stop offset="0.259615" stop-color="#FD641B"/>
<stop offset="0.629808" stop-color="#FF9E42"/>
<stop offset="1" stop-color="white"/>
</radialGradient>
<radialGradient id="paint10_radial_2149_3266" cx="0" cy="0" r="1" gradientUnits="userSpaceOnUse" gradientTransform="translate(631.5 371.5) rotate(90) scale(22.5)">
<stop offset="0.259615" stop-color="#FD641B"/>
<stop offset="0.629808" stop-color="#FF9E42"/>
<stop offset="1" stop-color="white"/>
</radialGradient>
<radialGradient id="paint11_radial_2149_3266" cx="0" cy="0" r="1" gradientUnits="userSpaceOnUse" gradientTransform="translate(835.5 371.5) rotate(90) scale(22.5)">
<stop offset="0.259615" stop-color="#FD641B"/>
<stop offset="0.629808" stop-color="#FF9E42"/>
<stop offset="1" stop-color="white"/>
</radialGradient>
<radialGradient id="paint12_radial_2149_3266" cx="0" cy="0" r="1" gradientUnits="userSpaceOnUse" gradientTransform="translate(1039.5 394.5) rotate(90) scale(22.5)">
<stop offset="0.259615" stop-color="#FD641B"/>
<stop offset="0.629808" stop-color="#FF9E42"/>
<stop offset="1" stop-color="white"/>
</radialGradient>
<radialGradient id="paint13_radial_2149_3266" cx="0" cy="0" r="1" gradientUnits="userSpaceOnUse" gradientTransform="translate(427.5 422.5) rotate(90) scale(22.5)">
<stop offset="0.259615" stop-color="#FD641B"/>
<stop offset="0.629808" stop-color="#FF9E42"/>
<stop offset="1" stop-color="white"/>
</radialGradient>
<radialGradient id="paint14_radial_2149_3266" cx="0" cy="0" r="1" gradientUnits="userSpaceOnUse" gradientTransform="translate(613.5 414.5) rotate(90) scale(22.5)">
<stop offset="0.259615" stop-color="#FD641B"/>
<stop offset="0.629808" stop-color="#FF9E42"/>
<stop offset="1" stop-color="white"/>
</radialGradient>
<radialGradient id="paint15_radial_2149_3266" cx="0" cy="0" r="1" gradientUnits="userSpaceOnUse" gradientTransform="translate(882.5 406.5) rotate(90) scale(22.5)">
<stop offset="0.259615" stop-color="#FD641B"/>
<stop offset="0.629808" stop-color="#FF9E42"/>
<stop offset="1" stop-color="white"/>
</radialGradient>
<radialGradient id="paint16_radial_2149_3266" cx="0" cy="0" r="1" gradientUnits="userSpaceOnUse" gradientTransform="translate(381.5 456.5) rotate(90) scale(22.5)">
<stop offset="0.259615" stop-color="#FD641B"/>
<stop offset="0.629808" stop-color="#FF9E42"/>
<stop offset="1" stop-color="white"/>
</radialGradient>
<radialGradient id="paint17_radial_2149_3266" cx="0" cy="0" r="1" gradientUnits="userSpaceOnUse" gradientTransform="translate(566.5 406.5) rotate(90) scale(22.5)">
<stop offset="0.259615" stop-color="#FD641B"/>
<stop offset="0.629808" stop-color="#FF9E42"/>
<stop offset="1" stop-color="white"/>
</radialGradient>
<radialGradient id="paint18_radial_2149_3266" cx="0" cy="0" r="1" gradientUnits="userSpaceOnUse" gradientTransform="translate(223.5 525.5) rotate(90) scale(22.5)">
<stop offset="0.259615" stop-color="#FD641B"/>
<stop offset="0.629808" stop-color="#FF9E42"/>
<stop offset="1" stop-color="white"/>
</radialGradient>
<radialGradient id="paint19_radial_2149_3266" cx="0" cy="0" r="1" gradientUnits="userSpaceOnUse" gradientTransform="translate(986.5 166.5) rotate(90) scale(22.5)">
<stop offset="0.259615" stop-color="#FD641B"/>
<stop offset="0.629808" stop-color="#FF9E42"/>
<stop offset="1" stop-color="white"/>
</radialGradient>
</defs>
</svg>
