<svg width="214" height="148" viewBox="0 0 214 148" fill="none" xmlns="http://www.w3.org/2000/svg">
<path d="M106.293 146.738C106.683 147.128 107.317 147.128 107.707 146.738L114.071 140.374C114.462 139.983 114.462 139.35 114.071 138.96C113.681 138.569 113.047 138.569 112.657 138.96L107 144.617L101.343 138.96C100.953 138.569 100.319 138.569 99.9289 138.96C99.5384 139.35 99.5384 139.983 99.9289 140.374L106.293 146.738ZM107 0L106 0L106 146.031H107H108L108 0L107 0Z" fill="white"/>
<path d="M127.293 73.7071C127.683 74.0976 128.317 74.0976 128.707 73.7071L135.071 67.3432C135.462 66.9526 135.462 66.3195 135.071 65.9289C134.681 65.5384 134.047 65.5384 133.657 65.9289L128 71.5858L122.343 65.9289C121.953 65.5384 121.319 65.5384 120.929 65.9289C120.538 66.3195 120.538 66.9526 120.929 67.3432L127.293 73.7071ZM128 0L127 0L127 73H128H129V0L128 0Z" fill="#7F7F86"/>
<path d="M152.293 73.7071C152.683 74.0976 153.317 74.0976 153.707 73.7071L160.071 67.3432C160.462 66.9526 160.462 66.3195 160.071 65.9289C159.681 65.5384 159.047 65.5384 158.657 65.9289L153 71.5858L147.343 65.9289C146.953 65.5384 146.319 65.5384 145.929 65.9289C145.538 66.3195 145.538 66.9526 145.929 67.3432L152.293 73.7071ZM153 0L152 0V73H153H154V0L153 0Z" fill="#7F7F86"/>
<path d="M177.293 73.7071C177.683 74.0976 178.317 74.0976 178.707 73.7071L185.071 67.3432C185.462 66.9526 185.462 66.3195 185.071 65.9289C184.681 65.5384 184.047 65.5384 183.657 65.9289L178 71.5858L172.343 65.9289C171.953 65.5384 171.319 65.5384 170.929 65.9289C170.538 66.3195 170.538 66.9526 170.929 67.3432L177.293 73.7071ZM178 0L177 0V73H178H179V0L178 0Z" fill="#7F7F86"/>
<path d="M202.293 73.7071C202.683 74.0976 203.317 74.0976 203.707 73.7071L210.071 67.3432C210.462 66.9526 210.462 66.3195 210.071 65.9289C209.681 65.5384 209.047 65.5384 208.657 65.9289L203 71.5858L197.343 65.9289C196.953 65.5384 196.319 65.5384 195.929 65.9289C195.538 66.3195 195.538 66.9526 195.929 67.3432L202.293 73.7071ZM203 0L202 0V73H203H204V0L203 0Z" fill="#7F7F86"/>
<path d="M10.2929 73.7071C10.6834 74.0976 11.3166 74.0976 11.7071 73.7071L18.0711 67.3432C18.4616 66.9526 18.4616 66.3195 18.0711 65.9289C17.6805 65.5384 17.0474 65.5384 16.6569 65.9289L11 71.5858L5.34315 65.9289C4.95262 65.5384 4.31946 65.5384 3.92893 65.9289C3.53841 66.3195 3.53841 66.9526 3.92893 67.3432L10.2929 73.7071ZM11 0L10 0L10 73H11H12L12 0L11 0Z" fill="#7F7F86"/>
<path d="M35.2929 73.7071C35.6834 74.0976 36.3166 74.0976 36.7071 73.7071L43.0711 67.3432C43.4616 66.9526 43.4616 66.3195 43.0711 65.9289C42.6805 65.5384 42.0474 65.5384 41.6569 65.9289L36 71.5858L30.3431 65.9289C29.9526 65.5384 29.3195 65.5384 28.9289 65.9289C28.5384 66.3195 28.5384 66.9526 28.9289 67.3432L35.2929 73.7071ZM36 0L35 0L35 73H36H37L37 0L36 0Z" fill="#7F7F86"/>
<path d="M60.2929 73.7071C60.6834 74.0976 61.3166 74.0976 61.7071 73.7071L68.0711 67.3432C68.4616 66.9526 68.4616 66.3195 68.0711 65.9289C67.6805 65.5384 67.0474 65.5384 66.6569 65.9289L61 71.5858L55.3431 65.9289C54.9526 65.5384 54.3195 65.5384 53.9289 65.9289C53.5384 66.3195 53.5384 66.9526 53.9289 67.3432L60.2929 73.7071ZM61 0L60 0L60 73H61H62L62 0L61 0Z" fill="#7F7F86"/>
<path d="M85.2929 73.7071C85.6834 74.0976 86.3166 74.0976 86.7071 73.7071L93.0711 67.3432C93.4616 66.9526 93.4616 66.3195 93.0711 65.9289C92.6805 65.5384 92.0474 65.5384 91.6569 65.9289L86 71.5858L80.3431 65.9289C79.9526 65.5384 79.3195 65.5384 78.9289 65.9289C78.5384 66.3195 78.5384 66.9526 78.9289 67.3432L85.2929 73.7071ZM86 0L85 0L85 73H86H87L87 0L86 0Z" fill="#7F7F86"/>
<path d="M1.31053 96.964C1.31053 95.226 2.34453 94.038 4.89653 93.774L9.25253 93.356C9.14253 91.354 8.06453 90.364 6.17253 90.364C4.58853 90.364 3.11453 91.068 3.11453 93.136H1.35453C1.35453 90.87 3.07053 88.846 6.17253 88.846C9.23053 88.846 11.0565 90.87 11.0565 93.796V98.46H12.6625V100H10.7265C9.89053 100 9.42853 99.538 9.42853 98.724V98.13L9.71453 96.986H9.18653C8.76853 98.658 7.60253 100.22 4.96253 100.22C1.79453 100.22 1.31053 98.108 1.31053 96.964ZM3.11453 96.744C3.11453 97.998 3.90653 98.68 5.18253 98.68C7.66853 98.68 9.25253 96.964 9.25253 94.698L5.20453 95.116C3.81853 95.248 3.11453 95.666 3.11453 96.744ZM18.4441 93.444V102.86H16.8821V96.788C16.8821 96.5387 16.8821 96.304 16.8821 96.084C16.8967 95.864 16.9114 95.6513 16.9261 95.446C16.9407 95.2407 16.9554 95.0353 16.9701 94.83C16.8234 94.962 16.6621 95.1087 16.4861 95.27C16.3101 95.4167 16.1267 95.556 15.9361 95.688L14.7481 96.546L13.9781 95.468L16.8381 93.444H18.4441Z" fill="#7F7F86"/>
<path d="M51.3105 96.964C51.3105 95.226 52.3445 94.038 54.8965 93.774L59.2525 93.356C59.1425 91.354 58.0645 90.364 56.1725 90.364C54.5885 90.364 53.1145 91.068 53.1145 93.136H51.3545C51.3545 90.87 53.0705 88.846 56.1725 88.846C59.2305 88.846 61.0565 90.87 61.0565 93.796V98.46H62.6625V100H60.7265C59.8905 100 59.4285 99.538 59.4285 98.724V98.13L59.7145 96.986H59.1865C58.7685 98.658 57.6025 100.22 54.9625 100.22C51.7945 100.22 51.3105 98.108 51.3105 96.964ZM53.1145 96.744C53.1145 97.998 53.9065 98.68 55.1825 98.68C57.6685 98.68 59.2525 96.964 59.2525 94.698L55.2045 95.116C53.8185 95.248 53.1145 95.666 53.1145 96.744ZM66.7941 93.246C67.8354 93.246 68.6201 93.4733 69.1481 93.928C69.6761 94.3827 69.9401 94.962 69.9401 95.666C69.9401 96.2527 69.7787 96.7367 69.4561 97.118C69.1481 97.4993 68.7741 97.7633 68.3341 97.91V97.976C68.9061 98.0787 69.3607 98.3207 69.6981 98.702C70.0501 99.0687 70.2261 99.5527 70.2261 100.154C70.2261 101.005 69.9181 101.694 69.3021 102.222C68.6861 102.765 67.7254 103.036 66.4201 103.036C65.8774 103.036 65.3714 102.985 64.9021 102.882C64.4327 102.794 63.9781 102.64 63.5381 102.42V101.034C64.0367 101.269 64.5354 101.452 65.0341 101.584C65.5327 101.716 66.0021 101.782 66.4421 101.782C67.2047 101.782 67.7621 101.628 68.1141 101.32C68.4661 101.027 68.6421 100.623 68.6421 100.11C68.6421 99.582 68.4294 99.2007 68.0041 98.966C67.5787 98.7167 66.9847 98.592 66.2221 98.592H64.9681V97.382H66.2221C66.9554 97.382 67.4907 97.2427 67.8281 96.964C68.1801 96.6707 68.3561 96.2967 68.3561 95.842C68.3561 95.3727 68.2021 95.0353 67.8941 94.83C67.6007 94.61 67.2414 94.5 66.8161 94.5C66.3614 94.5 65.9361 94.5807 65.5401 94.742C65.1587 94.8887 64.7701 95.0867 64.3741 95.336L63.5821 94.324C64.0367 93.9867 64.5134 93.7227 65.0121 93.532C65.5254 93.3413 66.1194 93.246 66.7941 93.246Z" fill="#7F7F86"/>
<path d="M76.3105 96.964C76.3105 95.226 77.3445 94.038 79.8965 93.774L84.2525 93.356C84.1425 91.354 83.0645 90.364 81.1725 90.364C79.5885 90.364 78.1145 91.068 78.1145 93.136H76.3545C76.3545 90.87 78.0705 88.846 81.1725 88.846C84.2305 88.846 86.0565 90.87 86.0565 93.796V98.46H87.6625V100H85.7265C84.8905 100 84.4285 99.538 84.4285 98.724V98.13L84.7145 96.986H84.1865C83.7685 98.658 82.6025 100.22 79.9625 100.22C76.7945 100.22 76.3105 98.108 76.3105 96.964ZM78.1145 96.744C78.1145 97.998 78.9065 98.68 80.1825 98.68C82.6685 98.68 84.2525 96.964 84.2525 94.698L80.2045 95.116C78.8185 95.248 78.1145 95.666 78.1145 96.744ZM95.6661 100.748H94.3241V102.86H92.6741V100.748H88.3841V99.604L92.7181 93.378H94.3241V99.428H95.6661V100.748ZM92.6741 97.382C92.6741 97.074 92.6814 96.7147 92.6961 96.304C92.7107 95.8933 92.7254 95.512 92.7401 95.16C92.6667 95.3213 92.5127 95.5853 92.2781 95.952C92.0434 96.304 91.8454 96.6047 91.6841 96.854L89.9241 99.428H92.6741V97.382Z" fill="#7F7F86"/>
<path d="M119.311 96.964C119.311 95.226 120.345 94.038 122.897 93.774L127.253 93.356C127.143 91.354 126.065 90.364 124.173 90.364C122.589 90.364 121.115 91.068 121.115 93.136H119.355C119.355 90.87 121.071 88.846 124.173 88.846C127.231 88.846 129.057 90.87 129.057 93.796V98.46H130.663V100H128.727C127.891 100 127.429 99.538 127.429 98.724V98.13L127.715 96.986H127.187C126.769 98.658 125.603 100.22 122.963 100.22C119.795 100.22 119.311 98.108 119.311 96.964ZM121.115 96.744C121.115 97.998 121.907 98.68 123.183 98.68C125.669 98.68 127.253 96.964 127.253 94.698L123.205 95.116C121.819 95.248 121.115 95.666 121.115 96.744ZM137.742 93.444V94.654H133.672L133.474 97.052C133.65 97.0227 133.841 96.9933 134.046 96.964C134.266 96.9347 134.501 96.92 134.75 96.92C135.733 96.92 136.554 97.1693 137.214 97.668C137.874 98.1667 138.204 98.8853 138.204 99.824C138.204 100.851 137.896 101.643 137.28 102.2C136.664 102.772 135.755 103.058 134.552 103.058C134.083 103.058 133.591 103.007 133.078 102.904C132.565 102.816 132.147 102.677 131.824 102.486V101.012C132.22 101.247 132.667 101.43 133.166 101.562C133.679 101.709 134.127 101.782 134.508 101.782C135.168 101.782 135.689 101.635 136.07 101.342C136.466 101.049 136.664 100.587 136.664 99.956C136.664 99.3987 136.466 98.966 136.07 98.658C135.689 98.35 135.146 98.196 134.442 98.196C134.061 98.196 133.731 98.2253 133.452 98.284C133.188 98.3427 132.946 98.4013 132.726 98.46L132.044 98.02L132.396 93.444H137.742Z" fill="#7F7F86"/>
<path d="M144.311 96.964C144.311 95.226 145.345 94.038 147.897 93.774L152.253 93.356C152.143 91.354 151.065 90.364 149.173 90.364C147.589 90.364 146.115 91.068 146.115 93.136H144.355C144.355 90.87 146.071 88.846 149.173 88.846C152.231 88.846 154.057 90.87 154.057 93.796V98.46H155.663V100H153.727C152.891 100 152.429 99.538 152.429 98.724V98.13L152.715 96.986H152.187C151.769 98.658 150.603 100.22 147.963 100.22C144.795 100.22 144.311 98.108 144.311 96.964ZM146.115 96.744C146.115 97.998 146.907 98.68 148.183 98.68C150.669 98.68 152.253 96.964 152.253 94.698L148.205 95.116C146.819 95.248 146.115 95.666 146.115 96.744ZM161.356 93.268C161.561 93.268 161.789 93.2827 162.038 93.312C162.302 93.3413 162.515 93.378 162.676 93.422V94.72C162.515 94.6613 162.309 94.6173 162.06 94.588C161.811 94.544 161.547 94.522 161.268 94.522C160.476 94.522 159.853 94.676 159.398 94.984C158.943 95.2773 158.613 95.6807 158.408 96.194C158.217 96.7073 158.1 97.272 158.056 97.888H158.144C158.349 97.58 158.65 97.3233 159.046 97.118C159.442 96.898 159.941 96.788 160.542 96.788C161.407 96.788 162.111 97.0447 162.654 97.558C163.197 98.0713 163.468 98.7973 163.468 99.736C163.468 100.411 163.329 100.997 163.05 101.496C162.786 101.995 162.405 102.376 161.906 102.64C161.407 102.904 160.821 103.036 160.146 103.036C159.486 103.036 158.885 102.882 158.342 102.574C157.814 102.266 157.389 101.797 157.066 101.166C156.758 100.55 156.604 99.7653 156.604 98.812C156.604 98.1227 156.67 97.448 156.802 96.788C156.934 96.128 157.169 95.534 157.506 95.006C157.858 94.478 158.342 94.06 158.958 93.752C159.574 93.4293 160.373 93.268 161.356 93.268ZM160.168 97.998C159.743 97.998 159.376 98.0787 159.068 98.24C158.76 98.3867 158.525 98.5847 158.364 98.834C158.203 99.0687 158.122 99.3107 158.122 99.56C158.122 99.912 158.195 100.257 158.342 100.594C158.489 100.946 158.709 101.232 159.002 101.452C159.295 101.672 159.662 101.782 160.102 101.782C160.659 101.782 161.107 101.613 161.444 101.276C161.796 100.953 161.972 100.455 161.972 99.78C161.972 99.2227 161.818 98.79 161.51 98.482C161.217 98.1593 160.769 97.998 160.168 97.998Z" fill="#7F7F86"/>
<path d="M168.311 96.964C168.311 95.226 169.345 94.038 171.897 93.774L176.253 93.356C176.143 91.354 175.065 90.364 173.173 90.364C171.589 90.364 170.115 91.068 170.115 93.136H168.355C168.355 90.87 170.071 88.846 173.173 88.846C176.231 88.846 178.057 90.87 178.057 93.796V98.46H179.663V100H177.727C176.891 100 176.429 99.538 176.429 98.724V98.13L176.715 96.986H176.187C175.769 98.658 174.603 100.22 171.963 100.22C168.795 100.22 168.311 98.108 168.311 96.964ZM170.115 96.744C170.115 97.998 170.907 98.68 172.183 98.68C174.669 98.68 176.253 96.964 176.253 94.698L172.205 95.116C170.819 95.248 170.115 95.666 170.115 96.744ZM181.902 102.86L185.642 94.764H180.78V93.444H187.27V94.522L183.53 102.86H181.902Z" fill="#7F7F86"/>
<path d="M194.311 96.964C194.311 95.226 195.345 94.038 197.897 93.774L202.253 93.356C202.143 91.354 201.065 90.364 199.173 90.364C197.589 90.364 196.115 91.068 196.115 93.136H194.355C194.355 90.87 196.071 88.846 199.173 88.846C202.231 88.846 204.057 90.87 204.057 93.796V98.46H205.663V100H203.727C202.891 100 202.429 99.538 202.429 98.724V98.13L202.715 96.986H202.187C201.769 98.658 200.603 100.22 197.963 100.22C194.795 100.22 194.311 98.108 194.311 96.964ZM196.115 96.744C196.115 97.998 196.907 98.68 198.183 98.68C200.669 98.68 202.253 96.964 202.253 94.698L198.205 95.116C196.819 95.248 196.115 95.666 196.115 96.744ZM210.036 93.268C210.843 93.268 211.539 93.466 212.126 93.862C212.713 94.2433 213.006 94.8373 213.006 95.644C213.006 96.1867 212.852 96.634 212.544 96.986C212.236 97.338 211.862 97.6313 211.422 97.866C211.994 98.1007 212.449 98.4233 212.786 98.834C213.138 99.23 213.314 99.7287 213.314 100.33C213.314 101.151 213.006 101.804 212.39 102.288C211.789 102.787 211.004 103.036 210.036 103.036C209.317 103.036 208.709 102.926 208.21 102.706C207.726 102.501 207.352 102.2 207.088 101.804C206.839 101.408 206.714 100.939 206.714 100.396C206.714 99.9853 206.787 99.6333 206.934 99.34C207.095 99.032 207.301 98.7607 207.55 98.526C207.814 98.2913 208.1 98.0933 208.408 97.932C207.953 97.6387 207.601 97.338 207.352 97.03C207.117 96.7073 207 96.2673 207 95.71C207 95.182 207.139 94.742 207.418 94.39C207.697 94.0233 208.063 93.7447 208.518 93.554C208.987 93.3633 209.493 93.268 210.036 93.268ZM209.684 98.526C209.361 98.6727 209.09 98.8413 208.87 99.032C208.65 99.208 208.481 99.4133 208.364 99.648C208.261 99.868 208.21 100.117 208.21 100.396C208.21 100.807 208.357 101.144 208.65 101.408C208.943 101.672 209.391 101.804 209.992 101.804C210.608 101.804 211.063 101.672 211.356 101.408C211.649 101.144 211.796 100.807 211.796 100.396C211.796 99.9707 211.627 99.6187 211.29 99.34C210.967 99.0613 210.527 98.8267 209.97 98.636L209.684 98.526ZM210.014 94.478C209.545 94.478 209.178 94.588 208.914 94.808C208.65 95.0133 208.518 95.3067 208.518 95.688C208.518 96.0693 208.665 96.3847 208.958 96.634C209.251 96.8833 209.618 97.096 210.058 97.272C210.483 97.1107 210.828 96.9127 211.092 96.678C211.371 96.4287 211.51 96.0987 211.51 95.688C211.51 95.3067 211.378 95.0133 211.114 94.808C210.85 94.588 210.483 94.478 210.014 94.478Z" fill="#7F7F86"/>
<path d="M26.3105 96.964C26.3105 95.226 27.3445 94.038 29.8965 93.774L34.2525 93.356C34.1425 91.354 33.0645 90.364 31.1725 90.364C29.5885 90.364 28.1145 91.068 28.1145 93.136H26.3545C26.3545 90.87 28.0705 88.846 31.1725 88.846C34.2305 88.846 36.0565 90.87 36.0565 93.796V98.46H37.6625V100H35.7265C34.8905 100 34.4285 99.538 34.4285 98.724V98.13L34.7145 96.986H34.1865C33.7685 98.658 32.6025 100.22 29.9625 100.22C26.7945 100.22 26.3105 98.108 26.3105 96.964ZM28.1145 96.744C28.1145 97.998 28.9065 98.68 30.1825 98.68C32.6685 98.68 34.2525 96.964 34.2525 94.698L30.2045 95.116C28.8185 95.248 28.1145 95.666 28.1145 96.744ZM44.8961 102.86H38.6921V101.672L41.2221 99.208C41.8234 98.636 42.2707 98.174 42.5641 97.822C42.8721 97.4553 43.0774 97.1327 43.1801 96.854C43.2974 96.5607 43.3561 96.2527 43.3561 95.93C43.3561 95.4607 43.2167 95.1087 42.9381 94.874C42.6741 94.6393 42.3221 94.522 41.8821 94.522C41.4421 94.522 41.0387 94.61 40.6721 94.786C40.3201 94.9473 39.9534 95.1747 39.5721 95.468L38.8021 94.456C39.2274 94.0893 39.6894 93.796 40.1881 93.576C40.7014 93.356 41.2734 93.246 41.9041 93.246C42.8427 93.246 43.5761 93.4807 44.1041 93.95C44.6467 94.4047 44.9181 95.0353 44.9181 95.842C44.9181 96.326 44.8154 96.7733 44.6101 97.184C44.4194 97.58 44.1334 97.9907 43.7521 98.416C43.3854 98.8267 42.9307 99.2887 42.3881 99.802L40.6061 101.496H44.8961V102.86Z" fill="#7F7F86"/>
</svg>
