<svg width="316" height="176" viewBox="0 0 316 176" fill="none" xmlns="http://www.w3.org/2000/svg">
<path d="M1 84.5006C5.43724 69.334 26.0574 64.0007 33.1047 82.5007C41.7182 128.501 60.7012 61.2972 64.4264 47.5007C68.3416 33.0007 80.0873 14.5007 84.7855 93.0007C89.4838 171.501 111.409 84.5006 111.409 61.0008C111.409 48.2238 136.466 -97.9992 145.08 119.001C150.561 148.167 163.246 194.301 170.137 145.501C178.751 84.5006 156.825 21.5007 170.137 29.5007C183.449 37.5007 186.581 146.501 192.062 119.001C197.544 91.5007 202.242 42.5007 206.157 61.0008C208.506 116.167 207.884 184.412 212.249 174.501C219.297 158.501 239.045 67.0007 315 71.0007M315 71.0007L292.292 78.5007M315 71.0007L283.678 67.0007" stroke="white" stroke-linecap="round"/>
<path d="M10.3965 84.5014C14.8337 69.3347 35.4538 64.0015 42.5012 82.5015C51.1147 128.502 70.0977 61.298 73.8229 47.5015C77.7381 33.0015 89.4838 14.5015 94.182 93.0015C98.8803 171.501 120.805 84.5014 120.805 61.0015C120.805 48.2246 145.863 -97.9985 154.476 119.001C159.958 148.168 172.643 194.302 179.534 145.501C188.147 84.5014 166.222 21.5015 179.534 29.5015C192.845 37.5015 195.978 146.502 201.459 119.001C206.94 91.5015 211.638 42.5015 215.554 61.0015C217.903 116.168 217.28 184.413 221.646 174.501C228.693 158.501 215.554 61.0015 314.217 71.5007" stroke="#FF9E42" stroke-linecap="round"/>
</svg>
