<svg width="42" height="29" viewBox="0 0 42 29" fill="none" xmlns="http://www.w3.org/2000/svg">
<path d="M2.07143 4.14286H39.3571C39.9065 4.14286 40.4334 3.92462 40.8219 3.53615C41.2103 3.14768 41.4286 2.62081 41.4286 2.07143C41.4286 1.52205 41.2103 0.995176 40.8219 0.606708C40.4334 0.21824 39.9065 0 39.3571 0H2.07143C1.52205 0 0.995175 0.21824 0.606707 0.606708C0.218239 0.995176 0 1.52205 0 2.07143C0 2.62081 0.218239 3.14768 0.606707 3.53615C0.995175 3.92462 1.52205 4.14286 2.07143 4.14286ZM39.3571 12.4286H2.07143C1.52205 12.4286 0.995175 12.6468 0.606707 13.0353C0.218239 13.4237 0 13.9506 0 14.5C0 15.0494 0.218239 15.5763 0.606707 15.9647C0.995175 16.3532 1.52205 16.5714 2.07143 16.5714H39.3571C39.9065 16.5714 40.4334 16.3532 40.8219 15.9647C41.2103 15.5763 41.4286 15.0494 41.4286 14.5C41.4286 13.9506 41.2103 13.4237 40.8219 13.0353C40.4334 12.6468 39.9065 12.4286 39.3571 12.4286ZM39.3571 24.8571H2.07143C1.52205 24.8571 0.995175 25.0754 0.606707 25.4638C0.218239 25.8523 0 26.3792 0 26.9286C0 27.4779 0.218239 28.0048 0.606707 28.3933C0.995175 28.7818 1.52205 29 2.07143 29H39.3571C39.9065 29 40.4334 28.7818 40.8219 28.3933C41.2103 28.0048 41.4286 27.4779 41.4286 26.9286C41.4286 26.3792 41.2103 25.8523 40.8219 25.4638C40.4334 25.0754 39.9065 24.8571 39.3571 24.8571Z" fill="#3D3D3D"/>
</svg>
