<svg width="1453" height="239" viewBox="0 0 1453 239" fill="none" xmlns="http://www.w3.org/2000/svg">
<path d="M2 132.3H71C71 132.3 95.379 132.3 111 132.3M2 132.3C23.6667 104.8 75.8 66.3 111 132.3M2 132.3C58 86.3 98 113.133 111 132.3M2 132.3C23 121.967 74.2 107.5 111 132.3M1452.5 132.3H380H299M111 132.3C158.839 132.3 233.5 132.3 233.5 132.3H299M111 132.3C146 174.8 171 307.3 219.5 132.3M111 132.3C135.5 171.3 191.5 225.9 219.5 132.3M111 132.3C136.833 155.133 194.7 187.1 219.5 132.3M219.5 132.3C232.333 49.8 266.2 -65.7 299 132.3M219.5 132.3C232.333 78.3 266.2 2.69997 299 132.3M219.5 132.3C233 106.633 267.8 70.7 299 132.3" stroke="white" stroke-linecap="round"/>
<path d="M575 131.974H510.5C510.5 131.974 489.516 131.974 475 131.974M575 131.974C562 194.5 507.711 193.817 475 131.974M575 131.974C531 202.5 487.081 149.933 475 131.974M575 131.974C537.5 177 509.198 155.212 475 131.974M475 131.974C442.475 92.1511 417.949 -34.1161 372.879 129.86M475 131.974C452.232 95.4306 398.899 42.1564 372.879 129.86M475 131.974C450.993 110.579 395.925 78.5123 372.879 129.86M372.879 129.86C360.953 207.164 329.481 318.002 299 132.474M372.879 129.86C360.953 180.459 329.481 253.91 299 132.474M372.879 129.86C360.333 153.91 327.994 190.194 299 132.474" stroke="white" stroke-linecap="round"/>
<path d="M1193.5 132.474H1131C1131 132.474 1110.52 132.474 1096 132.474M1193.5 132.474C1186.5 167.474 1128.71 194.317 1096 132.474M1193.5 132.474C1167.5 180.474 1108.08 150.433 1096 132.474M1193.5 132.474C1177 150.974 1130.2 155.712 1096 132.474M1096 132.474C1063.47 92.6511 1038.95 -34.442 993.879 129.535M1096 132.474C1073.23 95.9306 1019.9 41.8305 993.879 129.535M1096 132.474C1071.99 111.079 1016.93 78.1865 993.879 129.535M993.879 129.535C981.953 206.838 918.481 318.002 888 132.474M993.879 129.535C981.953 180.133 918.481 253.91 888 132.474M993.879 129.535C981.333 153.584 916.994 190.194 888 132.474" stroke="white" stroke-linecap="round"/>
<path d="M887 131.974L839.5 132.474C839.5 132.474 808.119 132.474 789.5 132.474M887 131.974C874 75 831.456 53.2957 789.5 132.474M887 131.974C859 68.5 824.5 92 789.5 132.474M887 131.974C863.5 110.5 871.5 74 789.5 132.474M789.5 132.474C747.783 183.46 720.808 342.416 663 132.474M789.5 132.474C760.298 179.261 696.374 244.763 663 132.474M789.5 132.474C758.709 159.866 692.56 198.216 663 132.474M663 132.474C647.704 33.5011 614.095 -105.561 575 131.974M663 132.474C647.704 67.6917 614.095 -23.5034 575 131.974M663 132.474C646.909 101.682 612.188 58.0742 575 131.974" stroke="white" stroke-linecap="round"/>
<path d="M1452 132.474C1410.28 183.46 1361.31 342.416 1303.5 132.474M1452 132.474C1422.8 179.261 1336.87 244.763 1303.5 132.474M1452 132.474C1421.21 159.866 1333.06 198.216 1303.5 132.474M1303.5 132.474C1288.2 33.5011 1232.59 -105.561 1193.5 131.974M1303.5 132.474C1288.2 67.6917 1232.59 -23.5034 1193.5 131.974M1303.5 132.474C1287.41 101.682 1230.69 58.0742 1193.5 131.974" stroke="white" stroke-linecap="round"/>
</svg>
