<svg width="1847" height="1630" viewBox="0 0 1847 1630" fill="none" xmlns="http://www.w3.org/2000/svg">
<g filter="url(#filter0_f_2149_2949)">
<path d="M81.5737 236.025C172.985 217.677 230.497 248.787 223.154 352.721C215.811 456.654 304.469 447.919 349.717 430.56C438.577 387.026 604.795 354.637 558.79 573.353C512.784 792.068 672.716 811.527 758.433 793.918C824.938 771.336 951.686 762.153 926.637 906.079C895.326 1085.99 986.988 1119.78 1073.84 1094.62C1160.7 1069.47 1489.68 766.722 1343.05 1249.3C1266.59 1500.96 1364.8 1466.83 1529.41 1373.37C1601.11 1332.67 1730.01 1353.98 1652.83 1529.07" stroke="white"/>
<path d="M81.5741 236.025C149.213 187.9 248.938 200.191 241.594 304.124C234.251 408.058 337.393 446.541 382.64 429.182C471.5 385.648 632.801 323.745 586.796 542.461C540.79 761.176 680.141 787.095 765.857 769.485C832.362 746.903 998.928 706.381 973.879 850.307C942.568 1030.21 978.572 1094.52 1065.43 1069.36C1152.28 1044.2 1546.25 718.638 1399.62 1201.22C1323.15 1452.88 1432.88 1462.27 1587.14 1355.78C1643.19 1317.09 1730.01 1353.98 1652.83 1529.07" stroke="#FD641B"/>
<path d="M81.5743 236.024C191.856 183.984 252.929 246.821 213.782 337.867C181.891 412.038 308.246 486.848 374.81 461.623C529.397 395.141 679.156 425.581 627.298 604.192C565.674 816.438 730.145 885.315 855.277 807.544C1022.69 717.045 1055.14 800.753 989.522 930.4C911.817 1083.92 1039.64 1147.96 1096.16 1084.3C1181.38 988.31 1438.93 682.271 1378.23 1142C1348.54 1366.88 1351.26 1511.03 1515.87 1417.57C1587.57 1376.86 1730.01 1353.98 1652.83 1529.07" stroke="white"/>
<path d="M81.5738 236.025C180.803 145.26 269.036 236.32 213.782 337.867C175.49 408.242 322.75 491.469 389.314 466.245C519.751 423.688 694.962 414.938 643.104 593.55C581.481 805.796 732.547 864.485 857.68 786.714C1025.09 696.216 1014.43 815.394 964.137 953.541C903.238 1120.82 970.788 1130.27 1057.64 1105.11C1144.5 1079.95 1508.92 648.965 1362.29 1131.55C1285.83 1383.2 1351.26 1511.03 1515.87 1417.57C1587.57 1376.86 1730.01 1353.98 1652.83 1529.07" stroke="#F5995A"/>
</g>
<defs>
<filter id="filter0_f_2149_2949" x="70.3363" y="187.353" width="1624.43" height="1352.82" filterUnits="userSpaceOnUse" color-interpolation-filters="sRGB">
<feFlood flood-opacity="0" result="BackgroundImageFix"/>
<feBlend mode="normal" in="SourceGraphic" in2="BackgroundImageFix" result="shape"/>
<feGaussianBlur stdDeviation="5.45" result="effect1_foregroundBlur_2149_2949"/>
</filter>
</defs>
</svg>
